<svg width="180" height="129" viewBox="0 0 180 129" fill="none" xmlns="http://www.w3.org/2000/svg">
<path opacity="0.2" d="M49.255 105.068L49.2586 103.068L49.2586 103.068L49.255 105.068ZM82.6413 65.3295L80.6413 65.3266L80.6413 65.3266L82.6413 65.3295ZM15.8686 65.3295L17.8686 65.3355L17.8686 65.3355L15.8686 65.3295ZM37.1413 65.3295L35.1414 65.32L35.1414 65.3203L37.1413 65.3295ZM61.3686 65.3295L63.3686 65.3249L63.3686 65.3248L61.3686 65.3295ZM49.2514 107.068C60.0498 107.088 68.9762 103.209 75.1742 95.8957C81.337 88.6236 84.6224 78.171 84.6413 65.3325L80.6413 65.3266C80.6233 77.5279 77.5011 86.963 72.1226 93.3096C66.7795 99.6146 59.0311 103.086 49.2586 103.068L49.2514 107.068ZM84.6413 65.3325C84.6603 52.5608 81.3724 42.2889 75.1845 35.1817C68.9664 28.0398 60.0234 24.3295 49.255 24.3295V28.3295C59.0575 28.3295 66.8263 31.6733 72.1677 37.8083C77.5396 43.9782 80.6593 53.2063 80.6413 65.3266L84.6413 65.3325ZM49.255 24.3295C38.4707 24.3295 29.5535 28.0196 23.3519 35.1554C17.1831 42.2536 13.9065 52.5236 13.8686 65.3236L17.8686 65.3355C17.9046 53.1696 21.0172 43.9396 26.3711 37.7793C31.6923 31.6565 39.4313 28.3295 49.255 28.3295V24.3295ZM13.8686 65.3236C13.8307 78.1136 17.1082 88.55 23.2809 95.8271C29.4865 103.143 38.4372 107.049 49.2514 107.068L49.2586 103.068C39.4648 103.051 31.6854 99.5516 26.3313 93.2396C20.9444 86.8889 17.8326 77.4744 17.8686 65.3355L13.8686 65.3236ZM49.255 86.375C46.5189 86.375 44.0916 85.0616 42.2486 81.8305C40.3444 78.492 39.1051 73.1327 39.1413 65.3388L35.1414 65.3203C35.1037 73.444 36.3757 79.6074 38.7741 83.8123C41.2337 88.1245 44.9001 90.375 49.255 90.375V86.375ZM39.1413 65.339C39.1775 57.7239 40.4148 52.5136 42.296 49.2766C44.1099 46.1552 46.4966 44.875 49.255 44.875V40.875C44.9225 40.875 41.2893 43.0479 38.8375 47.2668C36.4531 51.3699 35.179 57.3869 35.1414 65.32L39.1413 65.339ZM49.255 44.875C52.0152 44.875 54.4111 46.1571 56.2288 49.2782C58.113 52.5136 59.3505 57.7219 59.3686 65.3343L63.3686 65.3248C63.3498 57.3889 62.0759 51.3699 59.6853 47.2651C57.2281 43.046 53.5856 40.875 49.255 40.875V44.875ZM59.3686 65.3342C59.3867 73.1308 58.1476 78.492 56.2465 81.8321C54.4074 85.0635 51.9892 86.375 49.255 86.375V90.375C53.6117 90.375 57.2688 88.1226 59.7229 83.8107C62.1152 79.6075 63.3874 73.446 63.3686 65.3249L59.3686 65.3342ZM129.36 27.3636H131.36V25.3636H129.36V27.3636ZM110.451 27.3636V25.3636H109.888L109.408 25.6571L110.451 27.3636ZM91.8374 38.7386L90.7945 37.0321L89.8374 37.617V38.7386H91.8374ZM91.8374 56.1705H89.8374V59.6974L92.8641 57.8868L91.8374 56.1705ZM108.383 46.2727V44.2727H107.83L107.356 44.5564L108.383 46.2727ZM108.826 46.2727H110.826V44.2727H108.826V46.2727ZM108.826 103H106.826V105H108.826V103ZM129.36 103V105H131.36V103H129.36ZM129.36 25.3636H110.451V29.3636H129.36V25.3636ZM109.408 25.6571L90.7945 37.0321L92.8803 40.4452L111.494 29.0702L109.408 25.6571ZM89.8374 38.7386V56.1705H93.8374V38.7386H89.8374ZM92.8641 57.8868L109.41 47.9891L107.356 44.5564L90.8106 54.4541L92.8641 57.8868ZM108.383 48.2727H108.826V44.2727H108.383V48.2727ZM106.826 46.2727V103H110.826V46.2727H106.826ZM108.826 105H129.36V101H108.826V105ZM131.36 103V27.3636H127.36V103H131.36ZM162.802 93.8409L164.802 93.8665L164.802 93.8406L164.802 93.8146L162.802 93.8409ZM142.12 93.8409L144.12 93.8665L144.12 93.8406L144.12 93.8146L142.12 93.8409ZM152.461 106.182C158.976 106.182 164.714 100.731 164.802 93.8665L160.802 93.8153C160.742 98.474 156.804 102.182 152.461 102.182V106.182ZM164.802 93.8146C164.713 87.0807 158.958 81.6477 152.461 81.6477V85.6477C156.822 85.6477 160.743 89.3739 160.802 93.8672L164.802 93.8146ZM152.461 81.6477C145.68 81.6477 140.031 87.0814 140.12 93.8672L144.12 93.8146C144.061 89.3732 147.793 85.6477 152.461 85.6477V81.6477ZM140.12 93.8153C140.032 100.729 145.66 106.182 152.461 106.182V102.182C147.813 102.182 144.061 98.4752 144.12 93.8665L140.12 93.8153Z" fill="#BC363F"/>
</svg>
