<svg width="180" height="129" viewBox="0 0 180 129" fill="none" xmlns="http://www.w3.org/2000/svg">
<path opacity="0.2" d="M40.1143 105.068L40.1179 103.068L40.1179 103.068L40.1143 105.068ZM73.5007 65.3295L71.5007 65.3266L71.5007 65.3266L73.5007 65.3295ZM6.72798 65.3295L8.72797 65.3355L8.72797 65.3355L6.72798 65.3295ZM28.0007 65.3295L26.0007 65.32L26.0007 65.3203L28.0007 65.3295ZM52.228 65.3295L54.228 65.3249L54.228 65.3248L52.228 65.3295ZM40.1108 107.068C50.9092 107.088 59.8356 103.209 66.0336 95.8957C72.1963 88.6236 75.4818 78.171 75.5007 65.3325L71.5007 65.3266C71.4827 77.5279 68.3605 86.963 62.982 93.3096C57.6388 99.6146 49.8905 103.086 40.1179 103.068L40.1108 107.068ZM75.5007 65.3325C75.5197 52.5608 72.2318 42.2889 66.0439 35.1817C59.8257 28.0398 50.8828 24.3295 40.1143 24.3295V28.3295C49.9169 28.3295 57.6856 31.6733 63.0271 37.8083C68.3989 43.9782 71.5187 53.2063 71.5007 65.3266L75.5007 65.3325ZM40.1143 24.3295C29.3301 24.3295 20.4129 28.0196 14.2113 35.1554C8.04243 42.2536 4.76586 52.5236 4.72799 65.3236L8.72797 65.3355C8.76397 53.1696 11.8766 43.9396 17.2305 37.7793C22.5516 31.6565 30.2907 28.3295 40.1143 28.3295V24.3295ZM4.72799 65.3236C4.6901 78.1136 7.96758 88.55 14.1403 95.8271C20.3459 103.143 29.2966 107.049 40.1108 107.068L40.1179 103.068C30.3241 103.051 22.5448 99.5516 17.1907 93.2396C11.8037 86.8889 8.69201 77.4744 8.72797 65.3355L4.72799 65.3236ZM40.1143 86.375C37.3783 86.375 34.951 85.0616 33.108 81.8305C31.2038 78.492 29.9645 73.1327 30.0007 65.3388L26.0007 65.3203C25.963 73.444 27.2351 79.6074 29.6335 83.8123C32.0931 88.1245 35.7595 90.375 40.1143 90.375V86.375ZM30.0007 65.339C30.0369 57.7239 31.2742 52.5136 33.1553 49.2766C34.9693 46.1552 37.356 44.875 40.1143 44.875V40.875C35.7818 40.875 32.1486 43.0479 29.6969 47.2668C27.3125 51.3699 26.0384 57.3869 26.0007 65.32L30.0007 65.339ZM40.1143 44.875C42.8746 44.875 45.2704 46.1571 47.0881 49.2782C48.9724 52.5136 50.2099 57.7219 50.228 65.3343L54.228 65.3248C54.2091 57.3889 52.9353 51.3699 50.5447 47.2651C48.0875 43.046 44.445 40.875 40.1143 40.875V44.875ZM50.228 65.3342C50.2461 73.1308 49.007 78.492 47.1059 81.8321C45.2667 85.0635 42.8485 86.375 40.1143 86.375V90.375C44.4711 90.375 48.1282 88.1226 50.5823 83.8107C52.9746 79.6075 54.2468 73.446 54.228 65.3249L50.228 65.3342ZM83.1399 103H81.1399V105H83.1399V103ZM141.197 103V105H143.197V103H141.197ZM141.197 86.6023H143.197V84.6023H141.197V86.6023ZM111.651 86.6023H109.651V88.6023H111.651V86.6023ZM111.651 86.1591L110.371 84.6226L109.651 85.2223V86.1591H111.651ZM118.742 80.25L117.462 78.7133L117.462 78.7136L118.742 80.25ZM81.6626 52.0341L79.6626 52.0387L79.6673 54.0341H81.6626V52.0341ZM101.163 52.0341V54.0341H103.174L103.163 52.0225L101.163 52.0341ZM111.356 64.8864L112.631 66.4274L112.631 66.427L111.356 64.8864ZM83.1399 88.2273L81.8651 86.6862L81.1399 87.2861V88.2273H83.1399ZM83.1399 105H141.197V101H83.1399V105ZM143.197 103V86.6023H139.197V103H143.197ZM141.197 84.6023H111.651V88.6023H141.197V84.6023ZM113.651 86.6023V86.1591H109.651V86.6023H113.651ZM112.932 87.6955L120.023 81.7864L117.462 78.7136L110.371 84.6226L112.932 87.6955ZM120.022 81.7867C137.297 67.3971 142.384 59.4098 142.384 49.6705H138.384C138.384 57.4367 134.682 64.3699 117.462 78.7133L120.022 81.7867ZM142.384 49.6705C142.384 42.016 139.223 35.598 133.577 31.1399C127.977 26.7177 120.076 24.3295 110.691 24.3295V28.3295C119.439 28.3295 126.386 30.5579 131.098 34.2792C135.766 37.9645 138.384 43.2169 138.384 49.6705H142.384ZM110.691 24.3295C101.526 24.3295 93.7486 26.8773 88.2383 31.7089C82.6973 36.5674 79.643 43.5679 79.6626 52.0387L83.6626 52.0294C83.6454 44.5827 86.297 38.7309 90.8754 34.7165C95.4843 30.6753 102.24 28.3295 110.691 28.3295V24.3295ZM81.6626 54.0341H101.163V50.0341H81.6626V54.0341ZM103.163 52.0225C103.147 49.2612 103.974 47.3416 105.196 46.1154C106.423 44.8852 108.264 44.1364 110.691 44.1364V40.1364C107.43 40.1364 104.489 41.1602 102.364 43.2909C100.235 45.4255 99.1418 48.4547 99.1627 52.0457L103.163 52.0225ZM110.691 44.1364C113.105 44.1364 115.004 44.8813 116.282 46.0761C117.543 47.2555 118.367 49.0293 118.367 51.4432H122.367C122.367 48.0588 121.179 45.1791 119.014 43.1547C116.866 41.1457 113.927 40.1364 110.691 40.1364V44.1364ZM118.367 51.4432C118.367 55.7507 115.729 58.6702 110.08 63.3457L112.631 66.427C118.136 61.8696 122.367 57.8459 122.367 51.4432H118.367ZM110.081 63.3453L81.8651 86.6862L84.4147 89.7683L112.631 66.4274L110.081 63.3453ZM81.1399 88.2273V103H85.1399V88.2273H81.1399ZM171.942 93.8409L173.942 93.8665L173.943 93.8406L173.942 93.8146L171.942 93.8409ZM151.261 93.8409L153.26 93.8665L153.261 93.8406L153.26 93.8146L151.261 93.8409ZM161.602 106.182C168.117 106.182 173.854 100.731 173.942 93.8665L169.943 93.8153C169.883 98.474 165.944 102.182 161.602 102.182V106.182ZM173.942 93.8146C173.854 87.0807 168.099 81.6477 161.602 81.6477V85.6477C165.962 85.6477 169.884 89.3739 169.943 93.8672L173.942 93.8146ZM161.602 81.6477C154.821 81.6477 149.172 87.0814 149.261 93.8672L153.26 93.8146C153.202 89.3732 156.934 85.6477 161.602 85.6477V81.6477ZM149.261 93.8153C149.172 100.729 154.801 106.182 161.602 106.182V102.182C156.953 102.182 153.201 98.4752 153.26 93.8665L149.261 93.8153Z" fill="#BC363F"/>
</svg>
