<svg width="180" height="129" viewBox="0 0 180 129" fill="none" xmlns="http://www.w3.org/2000/svg">
<path opacity="0.2" d="M39.6573 105.068L39.6609 103.068L39.6609 103.068L39.6573 105.068ZM73.0437 65.3295L71.0437 65.3266L71.0437 65.3266L73.0437 65.3295ZM6.27095 65.3295L8.27094 65.3355L8.27094 65.3355L6.27095 65.3295ZM27.5437 65.3295L25.5437 65.32L25.5437 65.3203L27.5437 65.3295ZM51.771 65.3295L53.7709 65.3249L53.7709 65.3248L51.771 65.3295ZM39.6537 107.068C50.4522 107.088 59.3786 103.209 65.5766 95.8957C71.7393 88.6236 75.0247 78.171 75.0437 65.3325L71.0437 65.3266C71.0257 77.5279 67.9034 86.963 62.525 93.3096C57.1818 99.6146 49.4335 103.086 39.6609 103.068L39.6537 107.068ZM75.0437 65.3325C75.0626 52.5608 71.7747 42.2889 65.5869 35.1817C59.3687 28.0398 50.4258 24.3295 39.6573 24.3295V28.3295C49.4599 28.3295 57.2286 31.6733 62.5701 37.8083C67.9419 43.9782 71.0617 53.2063 71.0437 65.3266L75.0437 65.3325ZM39.6573 24.3295C28.8731 24.3295 19.9558 28.0196 13.7543 35.1554C7.5854 42.2536 4.30883 52.5236 4.27096 65.3236L8.27094 65.3355C8.30694 53.1696 11.4196 43.9396 16.7734 37.7793C22.0946 31.6565 29.8336 28.3295 39.6573 28.3295V24.3295ZM4.27096 65.3236C4.23306 78.1136 7.51055 88.55 13.6832 95.8271C19.8888 103.143 28.8396 107.049 39.6537 107.068L39.6609 103.068C29.8671 103.051 22.0877 99.5516 16.7337 93.2396C11.3467 86.8889 8.23498 77.4744 8.27094 65.3355L4.27096 65.3236ZM39.6573 86.375C36.9212 86.375 34.4939 85.0616 32.651 81.8305C30.7468 78.492 29.5075 73.1327 29.5437 65.3388L25.5437 65.3203C25.506 73.444 26.7781 79.6074 29.1764 83.8123C31.636 88.1245 35.3025 90.375 39.6573 90.375V86.375ZM29.5437 65.339C29.5798 57.7239 30.8172 52.5136 32.6983 49.2766C34.5122 46.1552 36.8989 44.875 39.6573 44.875V40.875C35.3248 40.875 31.6916 43.0479 29.2399 47.2668C26.8554 51.3699 25.5814 57.3869 25.5437 65.32L29.5437 65.339ZM39.6573 44.875C42.4176 44.875 44.8134 46.1571 46.6311 49.2782C48.5154 52.5136 49.7529 57.7219 49.771 65.3343L53.7709 65.3248C53.7521 57.3889 52.4782 51.3699 50.0876 47.2651C47.6305 43.046 43.988 40.875 39.6573 40.875V44.875ZM49.771 65.3342C49.789 73.1308 48.5499 78.492 46.6489 81.8321C44.8097 85.0635 42.3915 86.375 39.6573 86.375V90.375C44.0141 90.375 47.6711 88.1226 50.1253 83.8107C52.5175 79.6075 53.7898 73.446 53.7709 65.3249L49.771 65.3342ZM143.694 81.2841L141.694 81.2682L141.694 81.2817L141.694 81.2952L143.694 81.2841ZM125.376 64.1477H123.376V65.9414L125.159 66.1359L125.376 64.1477ZM125.376 63.5568L125.164 61.5681L123.376 61.7586V63.5568H125.376ZM140.887 48.3409L138.887 48.3293L138.887 48.3438L138.888 48.3584L140.887 48.3409ZM82.9783 49.9659L80.9784 49.9552L80.9676 51.9659H82.9783V49.9659ZM102.626 49.9659V51.9659H104.594L104.626 49.9982L102.626 49.9659ZM121.092 49.6705L119.092 49.6368L119.092 49.6698L119.092 49.7027L121.092 49.6705ZM103.069 57.5V55.5H101.069V57.5H103.069ZM103.069 71.6818H101.069V73.6818H103.069V71.6818ZM121.978 79.5114L119.979 79.4791L119.978 79.511L119.979 79.5429L121.978 79.5114ZM102.183 79.9545L104.183 79.9209L104.15 77.9545H102.183V79.9545ZM81.5011 79.9545V77.9545H79.4906L79.5011 79.965L81.5011 79.9545ZM112.228 106.034C121.797 106.034 130.12 103.601 136.099 99.2796C142.114 94.9322 145.735 88.6688 145.694 81.273L141.694 81.2952C141.727 87.2318 138.867 92.3433 133.756 96.0378C128.609 99.7581 121.162 102.034 112.228 102.034V106.034ZM145.694 81.3C145.735 76.1851 144.028 71.6842 140.522 68.2994C137.048 64.9455 131.985 62.8568 125.593 62.1595L125.159 66.1359C130.955 66.7682 135.088 68.6128 137.744 71.1772C140.369 73.7107 141.727 77.1132 141.694 81.2682L145.694 81.3ZM127.376 64.1477V63.5568H123.376V64.1477H127.376ZM125.588 65.5456C135.315 64.5091 142.973 58.0925 142.887 48.3234L138.888 48.3584C138.95 55.5041 133.46 60.6841 125.164 61.5681L125.588 65.5456ZM142.887 48.3525C142.97 34.048 129.736 24.3295 112.376 24.3295V28.3295C128.55 28.3295 138.952 37.1509 138.887 48.3293L142.887 48.3525ZM112.376 24.3295C94.5573 24.3295 81.0601 34.6296 80.9784 49.9552L84.9783 49.9766C85.0443 37.6033 95.9221 28.3295 112.376 28.3295V24.3295ZM82.9783 51.9659H102.626V47.9659H82.9783V51.9659ZM104.626 49.9982C104.676 46.8649 107.425 44.1364 112.376 44.1364V40.1364C106.026 40.1364 100.724 43.9079 100.626 49.9337L104.626 49.9982ZM112.376 44.1364C114.564 44.1364 116.272 44.7987 117.392 45.7677C118.49 46.7177 119.119 48.0368 119.092 49.6368L123.092 49.7041C123.139 46.9092 121.995 44.4613 120.009 42.7429C118.045 41.0436 115.359 40.1364 112.376 40.1364V44.1364ZM119.092 49.7027C119.118 51.2933 118.412 52.6694 117.041 53.7084C115.633 54.7743 113.483 55.5 110.751 55.5V59.5C114.15 59.5 117.207 58.6007 119.456 56.8967C121.741 55.1658 123.14 52.6272 123.092 49.6382L119.092 49.7027ZM110.751 55.5H103.069V59.5H110.751V55.5ZM101.069 57.5V71.6818H105.069V57.5H101.069ZM103.069 73.6818H110.751V69.6818H103.069V73.6818ZM110.751 73.6818C113.774 73.6818 116.17 74.4238 117.741 75.5195C119.274 76.5891 120.003 77.9609 119.979 79.4791L123.978 79.5436C124.027 76.4823 122.467 73.9393 120.03 72.239C117.63 70.5648 114.376 69.6818 110.751 69.6818V73.6818ZM119.979 79.5429C120.006 81.2645 119.307 82.6869 118.061 83.719C116.787 84.7751 114.847 85.4886 112.376 85.4886V89.4886C115.593 89.4886 118.49 88.5587 120.614 86.7987C122.766 85.0148 124.025 82.4485 123.978 79.4799L119.979 79.5429ZM112.376 85.4886C107.002 85.4886 104.23 82.7422 104.183 79.9209L100.183 79.9882C100.283 85.9566 105.931 89.4886 112.376 89.4886V85.4886ZM102.183 77.9545H81.5011V81.9545H102.183V77.9545ZM79.5011 79.965C79.5829 95.5909 93.6862 106.034 112.228 106.034V102.034C94.9466 102.034 83.567 92.5341 83.501 79.9441L79.5011 79.965ZM172.4 93.8409L174.399 93.8665L174.4 93.8406L174.399 93.8146L172.4 93.8409ZM151.718 93.8409L153.718 93.8665L153.718 93.8406L153.718 93.8146L151.718 93.8409ZM162.059 106.182C168.574 106.182 174.311 100.731 174.399 93.8665L170.4 93.8153C170.34 98.474 166.401 102.182 162.059 102.182V106.182ZM174.399 93.8146C174.311 87.0807 168.556 81.6477 162.059 81.6477V85.6477C166.42 85.6477 170.341 89.3739 170.4 93.8672L174.399 93.8146ZM162.059 81.6477C155.278 81.6477 149.629 87.0814 149.718 93.8672L153.718 93.8146C153.659 89.3732 157.391 85.6477 162.059 85.6477V81.6477ZM149.718 93.8153C149.629 100.729 155.258 106.182 162.059 106.182V102.182C157.41 102.182 153.658 98.4752 153.718 93.8665L149.718 93.8153Z" fill="#BC363F"/>
</svg>
