<svg width="48" height="48" viewBox="0 0 48 48" fill="none" xmlns="http://www.w3.org/2000/svg">
<path d="M39 27.0004H30V22.3474C30.0416 20.298 30.6427 18.2989 31.7385 16.5664C32.8407 14.715 33.239 12.5285 32.8605 10.4073C32.482 8.28616 31.352 6.37236 29.6775 5.01642C28.4687 4.03097 27.0244 3.37674 25.4865 3.11791C23.9485 2.85908 22.3696 3.00456 20.9049 3.54007C19.4401 4.07557 18.1397 4.98271 17.1313 6.17246C16.1229 7.36221 15.4412 8.79368 15.153 10.3264C14.7396 12.4804 15.1394 14.7111 16.275 16.5874C17.3517 18.2625 17.9484 20.2008 18 22.1914V27.0004H9C8.20459 27.0012 7.44199 27.3175 6.87956 27.88C6.31712 28.4424 6.00079 29.205 6 30.0004V36.0004C6.00079 36.7958 6.31712 37.5584 6.87956 38.1209C7.44199 38.6833 8.20459 38.9996 9 39.0004V42.0004C9.00079 42.7958 9.31712 43.5584 9.87956 44.1209C10.442 44.6833 11.2046 44.9996 12 45.0004H36C36.7954 44.9996 37.558 44.6833 38.1204 44.1209C38.6829 43.5584 38.9992 42.7958 39 42.0004V39.0004C39.7954 38.9996 40.558 38.6833 41.1204 38.1209C41.6829 37.5584 41.9992 36.7958 42 36.0004V30.0004C41.9992 29.205 41.6829 28.4424 41.1204 27.88C40.558 27.3175 39.7954 27.0012 39 27.0004ZM18.105 10.8664C18.2657 10.0047 18.6132 9.1886 19.1231 8.47561C19.6331 7.76261 20.2931 7.17001 21.0567 6.7395C21.8203 6.30899 22.6689 6.05103 23.5429 5.98376C24.4169 5.91648 25.2951 6.04154 26.1155 6.35012C26.936 6.65871 27.6789 7.14333 28.292 7.76989C28.905 8.39644 29.3734 9.14972 29.664 9.97673C29.9546 10.8037 30.0605 11.6844 29.9742 12.5567C29.8879 13.4291 29.6115 14.2719 29.1645 15.0259C28.0491 16.8432 27.3442 18.8823 27.099 21.0004H20.91C20.6738 18.8847 19.9687 16.8482 18.846 15.0394C18.0912 13.788 17.8271 12.3012 18.105 10.8664ZM27 24.0004V27.0004H21V24.0004H27ZM36 42.0004H12V39.0004H36V42.0004ZM9 36.0004V30.0004H39V36.0004H9Z" fill="#BC363F"/>
</svg>
