<svg width="49" height="48" viewBox="0 0 49 48" fill="none" xmlns="http://www.w3.org/2000/svg">
<path fill-rule="evenodd" clip-rule="evenodd" d="M35.4799 8.40109C35.4359 8.38017 35.3881 8.37282 35.3415 8.3789C35.2949 8.38499 35.2492 8.40463 35.2101 8.43768L25.5652 16.5941C25.267 16.8463 24.8898 16.9845 24.5001 16.9845H21.8902V26.6419H24.5001C24.8898 26.6419 25.267 26.7802 25.5652 27.0324L35.2101 35.1888C35.2102 35.1889 35.21 35.1887 35.2101 35.1888M18.5819 26.6419V16.9845H7.44409C7.32269 16.9845 7.2029 17.0333 7.11198 17.1256C7.02053 17.2184 6.96623 17.3478 6.96623 17.4861V26.1404C6.96623 26.2787 7.02052 26.4081 7.11198 26.5009C7.2029 26.5931 7.32269 26.6419 7.44409 26.6419H18.5819ZM15.4942 29.966H18.5819V39.1218C18.5819 39.2602 18.5276 39.3895 18.4362 39.4823C18.3453 39.5746 18.2255 39.6234 18.1041 39.6234H15.9721C15.8507 39.6234 15.7309 39.5746 15.64 39.4823C15.5485 39.3895 15.4942 39.2602 15.4942 39.1218V29.966ZM12.1859 29.966V39.1218C12.1859 40.1312 12.5809 41.1024 13.2891 41.8211C13.9978 42.5404 14.9626 42.9475 15.9721 42.9475H18.1041C19.1135 42.9475 20.0783 42.5404 20.7871 41.8211C21.4953 41.1024 21.8902 40.1312 21.8902 39.1218V29.966H23.8966L33.0801 37.7323C33.6015 38.173 34.238 38.4555 34.9149 38.5439C35.5919 38.6324 36.2791 38.523 36.8957 38.2297C37.5121 37.9364 38.0308 37.4721 38.3931 36.8935C38.7551 36.3152 38.9464 35.6458 38.9462 34.9635C38.9462 34.9637 38.9462 34.9632 38.9462 34.9635V29.7921C40.4683 29.4684 41.8766 28.7023 42.9901 27.5723C44.498 26.0421 45.3422 23.9702 45.3422 21.8132C45.3422 19.6563 44.498 17.5844 42.9901 16.0542C41.8766 14.9242 40.4683 14.158 38.9462 13.8344V8.66385M35.6379 15.3225V8.66301C35.6379 8.60531 35.6217 8.54914 35.5927 8.5028C35.5638 8.4566 35.524 8.42209 35.4799 8.40109M35.6379 15.3225V28.304V15.3225ZM38.9462 26.3386V17.2879C39.5751 17.5263 40.1538 17.9003 40.6392 18.393C41.5304 19.2973 42.0339 20.5273 42.0339 21.8132C42.0339 23.0992 41.5304 24.3292 40.6392 25.2335C40.1538 25.7261 39.5751 26.1002 38.9462 26.3386ZM12.1859 29.966H7.44409C6.43461 29.966 5.46984 29.5589 4.7611 28.8397C4.0529 28.121 3.65796 27.1497 3.65796 26.1404V17.4861C3.65796 16.4768 4.0529 15.5055 4.7611 14.7868C5.46984 14.0676 6.43461 13.6604 7.44409 13.6604H20.2346C20.2351 13.6604 20.2356 13.6604 20.2361 13.6604C20.2366 13.6604 20.237 13.6604 20.2375 13.6604H23.8966L33.0801 5.89421C33.6015 5.45347 34.238 5.171 34.9149 5.08256C35.5919 4.99411 36.2792 5.10345 36.8957 5.39678C37.5121 5.69004 38.0308 6.15432 38.3931 6.73299C38.7551 7.31128 38.9464 7.98155 38.9462 8.66385" fill="#BC363F"/>
</svg>
