<svg width="48" height="48" viewBox="0 0 48 48" fill="none" xmlns="http://www.w3.org/2000/svg">
<path d="M12 18H25.5V21H12V18Z" fill="#BC363F"/>
<path d="M12 25.5H19.5V28.5H12V25.5Z" fill="#BC363F"/>
<path d="M31.5 39H6C5.20459 38.9992 4.44199 38.6829 3.87956 38.1204C3.31712 37.558 3.00079 36.7954 3 36V12C3.00079 11.2046 3.31712 10.442 3.87956 9.87956C4.44199 9.31712 5.20459 9.00079 6 9H31.5C32.2954 9.00079 33.058 9.31712 33.6204 9.87956C34.1829 10.442 34.4992 11.2046 34.5 12V18.0855L42.6285 12.2805C42.8527 12.1205 43.1166 12.0252 43.3914 12.0053C43.6661 11.9853 43.941 12.0414 44.186 12.1674C44.4309 12.2934 44.6365 12.4843 44.7801 12.7194C44.9237 12.9545 44.9998 13.2245 45 13.5V34.5C45 34.7756 44.9241 35.0458 44.7807 35.2811C44.6372 35.5164 44.4316 35.7076 44.1866 35.8338C43.9416 35.9599 43.6666 36.0161 43.3917 35.9962C43.1169 35.9763 42.8528 35.8811 42.6285 35.721L34.5 29.916V36C34.4992 36.7954 34.1829 37.558 33.6204 38.1204C33.058 38.6829 32.2954 38.9992 31.5 39ZM6 12V36.0015L31.5 36V27C31.5 26.7244 31.5759 26.4542 31.7193 26.2189C31.8628 25.9836 32.0684 25.7924 32.3134 25.6662C32.5584 25.5401 32.8334 25.4839 33.1083 25.5038C33.3831 25.5237 33.6472 25.6189 33.8715 25.779L42 31.584V16.416L33.8715 22.221C33.6472 22.3811 33.3831 22.4763 33.1083 22.4962C32.8334 22.5161 32.5584 22.4599 32.3134 22.3338C32.0684 22.2076 31.8628 22.0164 31.7193 21.7811C31.5759 21.5458 31.5 21.2756 31.5 21V12H6Z" fill="#BC363F"/>
</svg>
