<svg width="49" height="48" viewBox="0 0 49 48" fill="none" xmlns="http://www.w3.org/2000/svg">
<path d="M20 22.5V34.5L30.5 28.5L20 22.5Z" fill="#BC363F"/>
<path d="M39.5 42H9.5C8.70459 41.9992 7.94199 41.6829 7.37956 41.1204C6.81712 40.558 6.50079 39.7954 6.5 39V18C6.50079 17.2046 6.81712 16.442 7.37956 15.8796C7.94199 15.3171 8.70459 15.0008 9.5 15H39.5C40.2954 15.0008 41.058 15.3171 41.6204 15.8796C42.1829 16.442 42.4992 17.2046 42.5 18V39C42.4992 39.7954 42.1829 40.558 41.6204 41.1204C41.058 41.6829 40.2954 41.9992 39.5 42ZM9.5 18V39H39.5V18H9.5Z" fill="#BC363F"/>
<path d="M9.5 9H39.5V12H9.5V9Z" fill="#BC363F"/>
<path d="M12.5 3H36.5V6H12.5V3Z" fill="#BC363F"/>
</svg>
