<svg width="32" height="32" viewBox="0 0 32 32" fill="none" xmlns="http://www.w3.org/2000/svg">
<path d="M7 8.28925C7 7.57713 7.59175 7 8.32187 7H23.6781C24.4082 7 25 7.57713 25 8.28925V23.7108C25 24.4229 24.4082 25 23.6781 25H8.32187C7.59175 25 7 24.4229 7 23.7108V8.28925ZM12.5609 22.0682V13.9401H9.85975V22.0682H12.5609ZM11.2109 12.8298C12.1525 12.8298 12.7386 12.2065 12.7386 11.4257C12.7217 10.6281 12.1536 10.0218 11.2289 10.0218C10.3041 10.0218 9.7 10.6293 9.7 11.4257C9.7 12.2065 10.2861 12.8298 11.1929 12.8298H11.2109ZM16.7324 22.0682V17.5289C16.7324 17.2859 16.7504 17.0429 16.8224 16.8696C17.017 16.3847 17.4614 15.8819 18.2084 15.8819C19.186 15.8819 19.5764 16.6266 19.5764 17.7201V22.0682H22.2775V17.4062C22.2775 14.9088 20.9455 13.7478 19.168 13.7478C17.7347 13.7478 17.0924 14.5353 16.7324 15.0899V15.118H16.7144C16.7204 15.1086 16.7263 15.0992 16.7324 15.0899V13.9401H14.0324C14.0661 14.7029 14.0324 22.0682 14.0324 22.0682H16.7324Z" fill="#111111"/>
</svg>
