<svg width="81" height="80" viewBox="0 0 81 80" fill="none" xmlns="http://www.w3.org/2000/svg">
<path fill-rule="evenodd" clip-rule="evenodd" d="M40.6667 75C58.6159 75 73.1667 59.33 73.1667 40C73.1667 20.67 58.6159 5 40.6667 5C22.7174 5 8.16669 20.67 8.16669 40C8.16669 59.33 22.7174 75 40.6667 75ZM38.1667 67.5C51.9738 67.5 63.1667 55.1878 63.1667 40C63.1667 24.8122 51.9738 12.5 38.1667 12.5C24.3596 12.5 13.1667 24.8122 13.1667 40C13.1667 55.1878 24.3596 67.5 38.1667 67.5Z" fill="#BC363F" fill-opacity="0.5"/>
<path fill-rule="evenodd" clip-rule="evenodd" d="M38.1667 65C50.5931 65 60.6667 53.8071 60.6667 40C60.6667 26.1929 50.5931 15 38.1667 15C25.7403 15 15.6667 26.1929 15.6667 40C15.6667 53.8071 25.7403 65 38.1667 65ZM35.6667 55C42.5702 55 48.1667 48.2843 48.1667 40C48.1667 31.7157 42.5702 25 35.6667 25C28.7631 25 23.1667 31.7157 23.1667 40C23.1667 48.2843 28.7631 55 35.6667 55Z" fill="#BC363F" fill-opacity="0.8"/>
<path d="M45.6667 40C45.6667 46.9036 41.1895 52.5 35.6667 52.5C30.1438 52.5 25.6667 46.9036 25.6667 40C25.6667 33.0964 30.1438 27.5 35.6667 27.5C41.1895 27.5 45.6667 33.0964 45.6667 40Z" fill="#BC363F" fill-opacity="0.2"/>
</svg>
