<svg width="64" height="64" viewBox="0 0 64 64" fill="none" xmlns="http://www.w3.org/2000/svg">
<path d="M41.0642 22.5489L41.2767 22.7336C41.5787 23.0378 41.7623 23.4398 41.7943 23.8674C41.8262 24.2947 41.7047 24.7193 41.4517 25.0649L41.2669 25.2775L34.6879 31.8593L34.5465 32.0007L34.6879 32.1421L41.2744 38.7286C41.5789 39.0337 41.7638 39.4379 41.7955 39.8677C41.827 40.2951 41.7051 40.7195 41.4517 41.0649L41.267 41.2774C40.9628 41.5794 40.5608 41.7629 40.1332 41.7949C39.7059 41.8269 39.2813 41.7054 38.9357 41.4524L38.7231 41.2676L32.1414 34.6885L32 34.5472L31.8586 34.6886L25.272 41.2751C24.967 41.5796 24.5628 41.7645 24.1329 41.7962C23.7056 41.8277 23.2811 41.7058 22.9358 41.4524L22.7232 41.2677C22.4213 40.9635 22.2377 40.5615 22.2057 40.1339C22.1737 39.7066 22.2953 39.282 22.5483 38.9363L22.733 38.7238L29.3121 32.142L29.4535 32.0006L29.3121 31.8592L22.7255 25.2727C22.4211 24.9676 22.2362 24.5634 22.2044 24.1336C22.1729 23.7062 22.2949 23.2818 22.5482 22.9364L22.7329 22.7239C23.0371 22.4219 23.4392 22.2384 23.8668 22.2064C24.2941 22.1744 24.7187 22.2959 25.0643 22.549L25.2768 22.7337L31.8586 29.3128L32 29.4541L32.1414 29.3127L38.7279 22.7262C39.033 22.4217 39.4372 22.2368 39.8671 22.2051C40.2944 22.1736 40.7189 22.2955 41.0642 22.5489ZM32 5.53398C46.6175 5.53398 58.4666 17.3831 58.4666 32.0007C58.4666 46.6182 46.6175 58.4673 32 58.4673C17.3824 58.4673 5.53331 46.6182 5.53331 32.0007C5.53331 17.3831 17.3824 5.53398 32 5.53398ZM32 9.13398C25.9354 9.13398 20.1191 11.5431 15.8308 15.8315C11.5425 20.1198 9.13331 25.936 9.13331 32.0007C9.13331 38.0653 11.5425 43.8815 15.8308 48.1698C20.1191 52.4582 25.9354 54.8673 32 54.8673C38.0646 54.8673 43.8808 52.4582 48.1692 48.1698C52.4575 43.8815 54.8666 38.0653 54.8666 32.0007C54.8666 25.936 52.4575 20.1198 48.1692 15.8315C43.8808 11.5431 38.0646 9.13398 32 9.13398Z" fill="#BC363F" stroke="white" stroke-width="0.4"/>
</svg>
