<svg width="64" height="64" viewBox="0 0 64 64" fill="none" xmlns="http://www.w3.org/2000/svg">
<mask id="path-1-inside-1_225_3130" fill="white">
<path d="M51.7467 6.92628C52.5893 7.60095 53.3333 8.62228 53.3333 9.99828C53.3333 12.0916 52 13.4543 50.4853 14.2489C49.032 15.0116 47.1307 15.4303 45.1253 15.6836C41.2587 16.1716 36.2053 16.1289 31.2987 16.0889L30.6507 16.0836C25.4347 16.0409 20.44 16.0276 16.752 16.5743C14.8907 16.8489 13.5787 17.2383 12.7787 17.7023C12.064 18.1156 12 18.4223 12 18.6623L12.0027 18.6676C12.016 18.6943 12.064 18.7716 12.2027 18.8916C12.496 19.1503 13.04 19.4569 13.8987 19.7609C15.6 20.3663 17.9893 20.7636 20.528 21.0089C20.7947 21.0356 21.064 21.0623 21.3333 21.0836V25.0943C20.9357 25.0623 20.5383 25.0267 20.1413 24.9876C17.512 24.7343 14.7333 24.2996 12.56 23.5289C11.48 23.1449 10.408 22.6303 9.57333 21.9049C8.70667 21.1503 8 20.0676 8 18.6676C8 16.5769 9.232 15.1343 10.7733 14.2409C12.2347 13.3929 14.1493 12.9129 16.1653 12.6143C20.2267 12.0169 25.5653 12.0436 30.6827 12.0836L31.168 12.0889C36.216 12.1289 41.0293 12.1689 44.624 11.7156C46.496 11.4756 47.824 11.1289 48.6293 10.7076C49.1467 10.4356 49.2853 10.2356 49.3227 10.1129C49.2986 10.0916 49.2736 10.0711 49.248 10.0516C48.9867 9.84095 48.4827 9.57695 47.6533 9.31295C46.0133 8.79028 43.68 8.44895 41.0933 8.24628C36.84 7.90761 32.3253 7.96095 29.8987 7.99028L28.6667 8.00095C28.1362 8.00095 27.6275 7.79023 27.2525 7.41516C26.8774 7.04009 26.6667 6.53138 26.6667 6.00095C26.6667 5.47052 26.8774 4.96181 27.2525 4.58673C27.6275 4.21166 28.1362 4.00095 28.6667 4.00095L29.7813 3.99028C32.1653 3.96361 36.9413 3.90228 41.408 4.25695C44.0747 4.47028 46.7787 4.83561 48.8667 5.50228C49.904 5.83028 50.936 6.27828 51.7467 6.92628V6.92628ZM37.32 24.8783C37.1413 21.2516 34.928 18.6676 31.3307 18.6676C27.5787 18.6676 25.3333 21.481 25.3333 25.3556V36.4703L24.6427 36.2569C21.4667 35.3316 18.9787 35.2783 17.1067 36.2143C14.5653 37.4863 13.256 39.7663 13.3227 42.721C13.3303 43.086 13.4377 43.442 13.6332 43.7504C13.8288 44.0588 14.105 44.3077 14.432 44.4703L20.7333 47.6036L20.992 47.7423L21.2427 47.8996L26.2667 51.2489L26.7813 51.6169C27.9547 52.5209 28.8933 53.6916 29.52 55.0383L29.5973 55.2063L29.808 55.6196C30.4015 56.6734 31.2997 57.5232 32.3847 58.0576C33.4697 58.592 34.6908 58.7861 35.888 58.6143L42.336 57.6889L42.7787 57.6089C43.8521 57.3722 44.8399 56.845 45.6342 56.0851C46.4285 55.3251 46.9987 54.3616 47.2827 53.2996L50.0773 42.8383L50.1893 42.3583C50.4239 41.2264 50.4296 40.059 50.2062 38.9248C49.9828 37.7906 49.5347 36.7126 48.8884 35.7542C48.2421 34.7958 47.4106 33.9764 46.4429 33.3442C45.4751 32.712 44.3906 32.2797 43.2533 32.073L37.3333 30.9983V25.3556L37.3227 24.8756L37.32 24.8783ZM29.3413 24.9769C29.432 23.4009 30.104 22.6676 31.3307 22.6676C32.6533 22.6676 33.3307 23.5183 33.3307 25.3556V32.6676L33.352 32.953C33.4117 33.368 33.6004 33.7537 33.8914 34.0557C34.1823 34.3576 34.5608 34.5605 34.9733 34.6356L42.72 36.0463L42.9067 36.0916C44.1022 36.4111 45.1218 37.1923 45.7414 38.2635C46.361 39.3346 46.5298 40.608 46.2107 41.8036L43.4133 52.2676L43.3173 52.5503C43.181 52.8633 42.9668 53.1362 42.6951 53.343C42.4234 53.5497 42.1033 53.6835 41.7653 53.7316L35.3173 54.6569L35.0293 54.6783C34.6491 54.6772 34.2771 54.5677 33.9569 54.3627C33.6367 54.1578 33.3815 53.8658 33.2213 53.5209L33.1413 53.3556L32.8187 52.7023C31.7898 50.7753 30.3002 49.1327 28.4827 47.9209L23.4587 44.5743L22.9947 44.2836L22.512 44.025L17.432 41.4969L17.5333 41.1769C17.7733 40.5716 18.216 40.1343 18.8933 39.7956C20.0587 39.2116 22.6747 39.5876 26.568 41.1929C26.8723 41.319 27.203 41.3679 27.5308 41.3354C27.8585 41.3029 28.1732 41.1899 28.4468 41.0066C28.7204 40.8232 28.9445 40.5751 29.0991 40.2843C29.2538 39.9935 29.3342 39.669 29.3333 39.3396V25.3556L29.344 24.9769H29.3413Z"/>
</mask>
<path d="M51.7467 6.92628C52.5893 7.60095 53.3333 8.62228 53.3333 9.99828C53.3333 12.0916 52 13.4543 50.4853 14.2489C49.032 15.0116 47.1307 15.4303 45.1253 15.6836C41.2587 16.1716 36.2053 16.1289 31.2987 16.0889L30.6507 16.0836C25.4347 16.0409 20.44 16.0276 16.752 16.5743C14.8907 16.8489 13.5787 17.2383 12.7787 17.7023C12.064 18.1156 12 18.4223 12 18.6623L12.0027 18.6676C12.016 18.6943 12.064 18.7716 12.2027 18.8916C12.496 19.1503 13.04 19.4569 13.8987 19.7609C15.6 20.3663 17.9893 20.7636 20.528 21.0089C20.7947 21.0356 21.064 21.0623 21.3333 21.0836V25.0943C20.9357 25.0623 20.5383 25.0267 20.1413 24.9876C17.512 24.7343 14.7333 24.2996 12.56 23.5289C11.48 23.1449 10.408 22.6303 9.57333 21.9049C8.70667 21.1503 8 20.0676 8 18.6676C8 16.5769 9.232 15.1343 10.7733 14.2409C12.2347 13.3929 14.1493 12.9129 16.1653 12.6143C20.2267 12.0169 25.5653 12.0436 30.6827 12.0836L31.168 12.0889C36.216 12.1289 41.0293 12.1689 44.624 11.7156C46.496 11.4756 47.824 11.1289 48.6293 10.7076C49.1467 10.4356 49.2853 10.2356 49.3227 10.1129C49.2986 10.0916 49.2736 10.0711 49.248 10.0516C48.9867 9.84095 48.4827 9.57695 47.6533 9.31295C46.0133 8.79028 43.68 8.44895 41.0933 8.24628C36.84 7.90761 32.3253 7.96095 29.8987 7.99028L28.6667 8.00095C28.1362 8.00095 27.6275 7.79023 27.2525 7.41516C26.8774 7.04009 26.6667 6.53138 26.6667 6.00095C26.6667 5.47052 26.8774 4.96181 27.2525 4.58673C27.6275 4.21166 28.1362 4.00095 28.6667 4.00095L29.7813 3.99028C32.1653 3.96361 36.9413 3.90228 41.408 4.25695C44.0747 4.47028 46.7787 4.83561 48.8667 5.50228C49.904 5.83028 50.936 6.27828 51.7467 6.92628V6.92628ZM37.32 24.8783C37.1413 21.2516 34.928 18.6676 31.3307 18.6676C27.5787 18.6676 25.3333 21.481 25.3333 25.3556V36.4703L24.6427 36.2569C21.4667 35.3316 18.9787 35.2783 17.1067 36.2143C14.5653 37.4863 13.256 39.7663 13.3227 42.721C13.3303 43.086 13.4377 43.442 13.6332 43.7504C13.8288 44.0588 14.105 44.3077 14.432 44.4703L20.7333 47.6036L20.992 47.7423L21.2427 47.8996L26.2667 51.2489L26.7813 51.6169C27.9547 52.5209 28.8933 53.6916 29.52 55.0383L29.5973 55.2063L29.808 55.6196C30.4015 56.6734 31.2997 57.5232 32.3847 58.0576C33.4697 58.592 34.6908 58.7861 35.888 58.6143L42.336 57.6889L42.7787 57.6089C43.8521 57.3722 44.8399 56.845 45.6342 56.0851C46.4285 55.3251 46.9987 54.3616 47.2827 53.2996L50.0773 42.8383L50.1893 42.3583C50.4239 41.2264 50.4296 40.059 50.2062 38.9248C49.9828 37.7906 49.5347 36.7126 48.8884 35.7542C48.2421 34.7958 47.4106 33.9764 46.4429 33.3442C45.4751 32.712 44.3906 32.2797 43.2533 32.073L37.3333 30.9983V25.3556L37.3227 24.8756L37.32 24.8783ZM29.3413 24.9769C29.432 23.4009 30.104 22.6676 31.3307 22.6676C32.6533 22.6676 33.3307 23.5183 33.3307 25.3556V32.6676L33.352 32.953C33.4117 33.368 33.6004 33.7537 33.8914 34.0557C34.1823 34.3576 34.5608 34.5605 34.9733 34.6356L42.72 36.0463L42.9067 36.0916C44.1022 36.4111 45.1218 37.1923 45.7414 38.2635C46.361 39.3346 46.5298 40.608 46.2107 41.8036L43.4133 52.2676L43.3173 52.5503C43.181 52.8633 42.9668 53.1362 42.6951 53.343C42.4234 53.5497 42.1033 53.6835 41.7653 53.7316L35.3173 54.6569L35.0293 54.6783C34.6491 54.6772 34.2771 54.5677 33.9569 54.3627C33.6367 54.1578 33.3815 53.8658 33.2213 53.5209L33.1413 53.3556L32.8187 52.7023C31.7898 50.7753 30.3002 49.1327 28.4827 47.9209L23.4587 44.5743L22.9947 44.2836L22.512 44.025L17.432 41.4969L17.5333 41.1769C17.7733 40.5716 18.216 40.1343 18.8933 39.7956C20.0587 39.2116 22.6747 39.5876 26.568 41.1929C26.8723 41.319 27.203 41.3679 27.5308 41.3354C27.8585 41.3029 28.1732 41.1899 28.4468 41.0066C28.7204 40.8232 28.9445 40.5751 29.0991 40.2843C29.2538 39.9935 29.3342 39.669 29.3333 39.3396V25.3556L29.344 24.9769H29.3413Z" fill="#BC363F" stroke="white" stroke-width="0.8" mask="url(#path-1-inside-1_225_3130)"/>
</svg>
