<svg width="64" height="64" viewBox="0 0 64 64" fill="none" xmlns="http://www.w3.org/2000/svg">
<mask id="path-1-inside-1_225_3121" fill="white">
<path d="M32.82 8.01957C32.531 8.01928 32.2455 8.08173 31.9831 8.20258C31.7206 8.32344 31.4876 8.49983 31.3 8.71957L31.1 8.86357C25.08 7.09557 18.252 8.46357 13.488 12.9716C9.25997 16.9676 7.64797 22.4956 8.63597 27.6676L8.57597 27.7236L5.89197 30.2636C5.34512 30.7681 4.9087 31.3804 4.6102 32.062C4.3117 32.7435 4.15759 33.4795 4.15759 34.2236C4.15759 34.9676 4.3117 35.7036 4.6102 36.3851C4.9087 37.0667 5.34512 37.679 5.89197 38.1836C7.25997 39.4836 9.13997 40.0116 10.92 39.7676C11.176 40.6996 11.692 41.5836 12.464 42.3156C13.508 43.3036 14.848 43.8436 16.216 43.9396C16.316 45.2316 16.888 46.4996 17.936 47.4876C18.976 48.4756 20.316 49.0156 21.684 49.1116C21.784 50.4036 22.356 51.6716 23.404 52.6596C24.4472 53.6237 25.7908 54.199 27.2086 54.2886C28.6263 54.3782 30.0316 53.9767 31.188 53.1516L32.508 54.3996C34.828 56.5996 38.6 56.5996 40.924 54.3996C41.964 53.4156 42.54 52.1556 42.648 50.8676C44.008 50.7676 45.332 50.2276 46.372 49.2436C47.412 48.2596 47.988 46.9996 48.092 45.7116C49.432 45.5996 50.74 45.0596 51.772 44.0916C52.576 43.3276 53.104 42.3956 53.348 41.4156C54.2377 41.5284 55.1414 41.4443 55.9951 41.1692C56.8488 40.8941 57.6315 40.4347 58.288 39.8236C58.8348 39.319 59.2712 38.7067 59.5697 38.0251C59.8682 37.3436 60.0224 36.6076 60.0224 35.8636C60.0224 35.1195 59.8682 34.3835 59.5697 33.702C59.2712 33.0204 58.8348 32.4081 58.288 31.9036L55.912 29.6556L56.368 27.9756C57.415 24.0829 56.8832 19.9342 54.888 16.4316C51.948 11.2236 46.256 8.03157 40.128 8.03157H36.052C35.8681 8.02309 35.684 8.01909 35.5 8.01957H32.816H32.82ZM50.308 29.8476L52.252 31.7676C52.376 31.8876 52.512 31.9876 52.656 32.0716L55.384 34.6476C55.5515 34.8019 55.6852 34.9893 55.7766 35.1979C55.8681 35.4065 55.9153 35.6318 55.9153 35.8596C55.9153 36.0873 55.8681 36.3126 55.7766 36.5212C55.6852 36.7298 55.5515 36.9172 55.384 37.0716C55.0351 37.3943 54.5773 37.5736 54.102 37.5736C53.6267 37.5736 53.1689 37.3943 52.82 37.0716L48.26 32.7636C47.8646 32.3984 47.3462 32.1956 46.808 32.1956C46.2698 32.1956 45.7513 32.3984 45.356 32.7636L45.308 32.8036C44.508 33.5636 44.508 34.7956 45.308 35.5556L48.864 38.9156C49.0316 39.0703 49.1654 39.258 49.2568 39.4669C49.3483 39.6759 49.3956 39.9015 49.3956 40.1296C49.3956 40.3577 49.3483 40.5833 49.2568 40.7922C49.1654 41.0011 49.0316 41.1889 48.864 41.3436C48.5465 41.6374 48.1379 41.8135 47.7062 41.8427C47.2746 41.8718 46.8461 41.7521 46.492 41.5036C46.0898 41.2187 45.6018 41.081 45.11 41.1138C44.6182 41.1466 44.1528 41.3478 43.792 41.6836C43.4435 42.008 43.2321 42.4532 43.2009 42.9282C43.1697 43.4033 43.321 43.8723 43.624 44.2396C43.8901 44.5651 44.0218 44.98 43.992 45.3993C43.9623 45.8187 43.7734 46.2109 43.464 46.4956C43.1421 46.7934 42.7268 46.9702 42.2891 46.9958C41.8513 47.0213 41.4183 46.894 41.064 46.6356C40.6636 46.3428 40.174 46.198 39.6788 46.2257C39.1835 46.2534 38.7132 46.452 38.348 46.7876C37.9955 47.1119 37.7811 47.5593 37.7491 48.0372C37.7171 48.5151 37.8699 48.9871 38.176 49.3556C38.736 50.0356 38.68 51.0236 38.016 51.6516C37.6616 51.9776 37.1976 52.1586 36.716 52.1586C36.2344 52.1586 35.7704 51.9776 35.416 51.6516L34.128 50.4356L34.464 50.1196C35.0108 49.615 35.4472 49.0027 35.7457 48.3211C36.0442 47.6396 36.1984 46.9036 36.1984 46.1596C36.1984 45.4155 36.0442 44.6795 35.7457 43.998C35.4472 43.3164 35.0108 42.7041 34.464 42.1996C33.4394 41.2397 32.1131 40.6656 30.712 40.5756C30.6013 39.2197 29.9879 37.9542 28.992 37.0276C27.969 36.0671 26.6442 35.4916 25.244 35.3996C25.1333 34.0437 24.5199 32.7782 23.524 31.8516C22.8566 31.23 22.0589 30.7653 21.189 30.4913C20.3192 30.2172 19.3991 30.1408 18.496 30.2676C18.2245 29.294 17.6903 28.4138 16.952 27.7236C16.3624 27.1719 15.6692 26.7429 14.9125 26.4613C14.1558 26.1798 13.3507 26.0514 12.544 26.0836C12.3289 24.1754 12.5651 22.2434 13.2335 20.4432C13.9019 18.643 14.9837 17.025 16.392 15.7196C17.7696 14.4331 19.3957 13.442 21.1704 12.8071C22.9452 12.1722 24.831 11.9069 26.712 12.0276L22.332 15.1876C21.6598 15.6648 21.0929 16.275 20.6664 16.9804C20.2399 17.6858 19.9629 18.4714 19.8527 19.2883C19.7424 20.1052 19.8012 20.936 20.0254 21.7293C20.2496 22.5225 20.6344 23.2612 21.156 23.8996C22.2081 25.1883 23.7105 26.0292 25.3592 26.252C27.0078 26.4748 28.6796 26.0628 30.036 25.0996L35.424 21.2196H41.184L50.308 29.8476V29.8476ZM24.672 18.4276L33.564 12.0196H35.504C35.6707 12.0179 35.8375 12.0219 36.004 12.0316H40.124C44.892 12.0316 49.212 14.5116 51.408 18.3996C52.816 20.8916 53.236 23.7596 52.608 26.5036L43.76 17.7916C43.3862 17.425 42.8835 17.2196 42.36 17.2196H34.772C34.3529 17.2194 33.9443 17.351 33.604 17.5956L27.7 21.8556C27.1741 22.221 26.5303 22.3761 25.8957 22.2902C25.2611 22.2043 24.6818 21.8837 24.272 21.3916C24.0907 21.1764 23.9566 20.9256 23.8781 20.6555C23.7995 20.3853 23.7785 20.1017 23.8161 19.8229C23.8538 19.5441 23.9494 19.2763 24.0968 19.0367C24.2442 18.7971 24.4401 18.5909 24.672 18.4316V18.4276ZM29 44.9396C29.3497 44.6191 29.8072 44.4419 30.2815 44.4434C30.7559 44.4449 31.2123 44.6249 31.56 44.9476C31.7275 45.1019 31.8612 45.2893 31.9526 45.4979C32.0441 45.7065 32.0913 45.9318 32.0913 46.1596C32.0913 46.3873 32.0441 46.6126 31.9526 46.8212C31.8612 47.0298 31.7275 47.2172 31.56 47.3716L28.872 49.9116C28.5233 50.2332 28.0663 50.4117 27.592 50.4117C27.1176 50.4117 26.6607 50.2332 26.312 49.9116C26.1445 49.7572 26.0108 49.5698 25.9193 49.3612C25.8279 49.1526 25.7806 48.9273 25.7806 48.6996C25.7806 48.4718 25.8279 48.2465 25.9193 48.0379C26.0108 47.8293 26.1445 47.6419 26.312 47.4876L29 44.9436V44.9396ZM26.096 42.1916L23.404 44.7396C23.0551 45.0623 22.5973 45.2416 22.122 45.2416C21.6467 45.2416 21.1889 45.0623 20.84 44.7396C20.6762 44.5884 20.5447 44.4056 20.4536 44.2022C20.3625 43.9988 20.3136 43.779 20.3099 43.5561C20.3061 43.3333 20.3476 43.112 20.4319 42.9056C20.5161 42.6993 20.6413 42.5121 20.8 42.3556L20.84 42.3156L23.524 39.7756L23.564 39.7356C23.9154 39.4296 24.3677 39.2643 24.8336 39.2717C25.2996 39.2791 25.7464 39.4586 26.088 39.7756C26.2547 39.9293 26.3879 40.1157 26.4793 40.3233C26.5707 40.5309 26.6182 40.755 26.619 40.9818C26.6197 41.2086 26.5737 41.4331 26.4837 41.6413C26.3937 41.8494 26.2617 42.0368 26.096 42.1916V42.1916ZM20.616 37.0276L17.936 39.5636L17.892 39.6036C17.5408 39.9085 17.0894 40.073 16.6243 40.0656C16.1593 40.0582 15.7133 39.8795 15.372 39.5636C15.2045 39.4092 15.0708 39.2218 14.9793 39.0132C14.8879 38.8046 14.8406 38.5793 14.8406 38.3516C14.8406 38.1238 14.8879 37.8985 14.9793 37.6899C15.0708 37.4813 15.2045 37.2939 15.372 37.1396L18.052 34.6036C18.4011 34.2797 18.8597 34.0997 19.336 34.0997C19.8122 34.0997 20.2708 34.2797 20.62 34.6036C20.7838 34.7547 20.9152 34.9375 21.0063 35.141C21.0974 35.3444 21.1463 35.5642 21.1501 35.787C21.1538 36.0099 21.1123 36.2312 21.0281 36.4375C20.9438 36.6439 20.8186 36.831 20.66 36.9876L20.62 37.0276H20.616ZM14.048 32.8956L11.368 35.4356C11.0188 35.7594 10.5602 35.9394 10.084 35.9394C9.60774 35.9394 9.14911 35.7594 8.79997 35.4356C8.63246 35.2812 8.49876 35.0938 8.40731 34.8852C8.31586 34.6766 8.26865 34.4513 8.26865 34.2236C8.26865 33.9958 8.31586 33.7705 8.40731 33.5619C8.49876 33.3533 8.63246 33.1659 8.79997 33.0116L11.484 30.4716C11.8329 30.1488 12.2907 29.9696 12.766 29.9696C13.2413 29.9696 13.6991 30.1488 14.048 30.4716C14.2155 30.6259 14.3492 30.8133 14.4406 31.0219C14.5321 31.2305 14.5793 31.4558 14.5793 31.6836C14.5793 31.9113 14.5321 32.1366 14.4406 32.3452C14.3492 32.5538 14.2155 32.7412 14.048 32.8956V32.8956Z"/>
</mask>
<path d="M32.82 8.01957C32.531 8.01928 32.2455 8.08173 31.9831 8.20258C31.7206 8.32344 31.4876 8.49983 31.3 8.71957L31.1 8.86357C25.08 7.09557 18.252 8.46357 13.488 12.9716C9.25997 16.9676 7.64797 22.4956 8.63597 27.6676L8.57597 27.7236L5.89197 30.2636C5.34512 30.7681 4.9087 31.3804 4.6102 32.062C4.3117 32.7435 4.15759 33.4795 4.15759 34.2236C4.15759 34.9676 4.3117 35.7036 4.6102 36.3851C4.9087 37.0667 5.34512 37.679 5.89197 38.1836C7.25997 39.4836 9.13997 40.0116 10.92 39.7676C11.176 40.6996 11.692 41.5836 12.464 42.3156C13.508 43.3036 14.848 43.8436 16.216 43.9396C16.316 45.2316 16.888 46.4996 17.936 47.4876C18.976 48.4756 20.316 49.0156 21.684 49.1116C21.784 50.4036 22.356 51.6716 23.404 52.6596C24.4472 53.6237 25.7908 54.199 27.2086 54.2886C28.6263 54.3782 30.0316 53.9767 31.188 53.1516L32.508 54.3996C34.828 56.5996 38.6 56.5996 40.924 54.3996C41.964 53.4156 42.54 52.1556 42.648 50.8676C44.008 50.7676 45.332 50.2276 46.372 49.2436C47.412 48.2596 47.988 46.9996 48.092 45.7116C49.432 45.5996 50.74 45.0596 51.772 44.0916C52.576 43.3276 53.104 42.3956 53.348 41.4156C54.2377 41.5284 55.1414 41.4443 55.9951 41.1692C56.8488 40.8941 57.6315 40.4347 58.288 39.8236C58.8348 39.319 59.2712 38.7067 59.5697 38.0251C59.8682 37.3436 60.0224 36.6076 60.0224 35.8636C60.0224 35.1195 59.8682 34.3835 59.5697 33.702C59.2712 33.0204 58.8348 32.4081 58.288 31.9036L55.912 29.6556L56.368 27.9756C57.415 24.0829 56.8832 19.9342 54.888 16.4316C51.948 11.2236 46.256 8.03157 40.128 8.03157H36.052C35.8681 8.02309 35.684 8.01909 35.5 8.01957H32.816H32.82ZM50.308 29.8476L52.252 31.7676C52.376 31.8876 52.512 31.9876 52.656 32.0716L55.384 34.6476C55.5515 34.8019 55.6852 34.9893 55.7766 35.1979C55.8681 35.4065 55.9153 35.6318 55.9153 35.8596C55.9153 36.0873 55.8681 36.3126 55.7766 36.5212C55.6852 36.7298 55.5515 36.9172 55.384 37.0716C55.0351 37.3943 54.5773 37.5736 54.102 37.5736C53.6267 37.5736 53.1689 37.3943 52.82 37.0716L48.26 32.7636C47.8646 32.3984 47.3462 32.1956 46.808 32.1956C46.2698 32.1956 45.7513 32.3984 45.356 32.7636L45.308 32.8036C44.508 33.5636 44.508 34.7956 45.308 35.5556L48.864 38.9156C49.0316 39.0703 49.1654 39.258 49.2568 39.4669C49.3483 39.6759 49.3956 39.9015 49.3956 40.1296C49.3956 40.3577 49.3483 40.5833 49.2568 40.7922C49.1654 41.0011 49.0316 41.1889 48.864 41.3436C48.5465 41.6374 48.1379 41.8135 47.7062 41.8427C47.2746 41.8718 46.8461 41.7521 46.492 41.5036C46.0898 41.2187 45.6018 41.081 45.11 41.1138C44.6182 41.1466 44.1528 41.3478 43.792 41.6836C43.4435 42.008 43.2321 42.4532 43.2009 42.9282C43.1697 43.4033 43.321 43.8723 43.624 44.2396C43.8901 44.5651 44.0218 44.98 43.992 45.3993C43.9623 45.8187 43.7734 46.2109 43.464 46.4956C43.1421 46.7934 42.7268 46.9702 42.2891 46.9958C41.8513 47.0213 41.4183 46.894 41.064 46.6356C40.6636 46.3428 40.174 46.198 39.6788 46.2257C39.1835 46.2534 38.7132 46.452 38.348 46.7876C37.9955 47.1119 37.7811 47.5593 37.7491 48.0372C37.7171 48.5151 37.8699 48.9871 38.176 49.3556C38.736 50.0356 38.68 51.0236 38.016 51.6516C37.6616 51.9776 37.1976 52.1586 36.716 52.1586C36.2344 52.1586 35.7704 51.9776 35.416 51.6516L34.128 50.4356L34.464 50.1196C35.0108 49.615 35.4472 49.0027 35.7457 48.3211C36.0442 47.6396 36.1984 46.9036 36.1984 46.1596C36.1984 45.4155 36.0442 44.6795 35.7457 43.998C35.4472 43.3164 35.0108 42.7041 34.464 42.1996C33.4394 41.2397 32.1131 40.6656 30.712 40.5756C30.6013 39.2197 29.9879 37.9542 28.992 37.0276C27.969 36.0671 26.6442 35.4916 25.244 35.3996C25.1333 34.0437 24.5199 32.7782 23.524 31.8516C22.8566 31.23 22.0589 30.7653 21.189 30.4913C20.3192 30.2172 19.3991 30.1408 18.496 30.2676C18.2245 29.294 17.6903 28.4138 16.952 27.7236C16.3624 27.1719 15.6692 26.7429 14.9125 26.4613C14.1558 26.1798 13.3507 26.0514 12.544 26.0836C12.3289 24.1754 12.5651 22.2434 13.2335 20.4432C13.9019 18.643 14.9837 17.025 16.392 15.7196C17.7696 14.4331 19.3957 13.442 21.1704 12.8071C22.9452 12.1722 24.831 11.9069 26.712 12.0276L22.332 15.1876C21.6598 15.6648 21.0929 16.275 20.6664 16.9804C20.2399 17.6858 19.9629 18.4714 19.8527 19.2883C19.7424 20.1052 19.8012 20.936 20.0254 21.7293C20.2496 22.5225 20.6344 23.2612 21.156 23.8996C22.2081 25.1883 23.7105 26.0292 25.3592 26.252C27.0078 26.4748 28.6796 26.0628 30.036 25.0996L35.424 21.2196H41.184L50.308 29.8476V29.8476ZM24.672 18.4276L33.564 12.0196H35.504C35.6707 12.0179 35.8375 12.0219 36.004 12.0316H40.124C44.892 12.0316 49.212 14.5116 51.408 18.3996C52.816 20.8916 53.236 23.7596 52.608 26.5036L43.76 17.7916C43.3862 17.425 42.8835 17.2196 42.36 17.2196H34.772C34.3529 17.2194 33.9443 17.351 33.604 17.5956L27.7 21.8556C27.1741 22.221 26.5303 22.3761 25.8957 22.2902C25.2611 22.2043 24.6818 21.8837 24.272 21.3916C24.0907 21.1764 23.9566 20.9256 23.8781 20.6555C23.7995 20.3853 23.7785 20.1017 23.8161 19.8229C23.8538 19.5441 23.9494 19.2763 24.0968 19.0367C24.2442 18.7971 24.4401 18.5909 24.672 18.4316V18.4276ZM29 44.9396C29.3497 44.6191 29.8072 44.4419 30.2815 44.4434C30.7559 44.4449 31.2123 44.6249 31.56 44.9476C31.7275 45.1019 31.8612 45.2893 31.9526 45.4979C32.0441 45.7065 32.0913 45.9318 32.0913 46.1596C32.0913 46.3873 32.0441 46.6126 31.9526 46.8212C31.8612 47.0298 31.7275 47.2172 31.56 47.3716L28.872 49.9116C28.5233 50.2332 28.0663 50.4117 27.592 50.4117C27.1176 50.4117 26.6607 50.2332 26.312 49.9116C26.1445 49.7572 26.0108 49.5698 25.9193 49.3612C25.8279 49.1526 25.7806 48.9273 25.7806 48.6996C25.7806 48.4718 25.8279 48.2465 25.9193 48.0379C26.0108 47.8293 26.1445 47.6419 26.312 47.4876L29 44.9436V44.9396ZM26.096 42.1916L23.404 44.7396C23.0551 45.0623 22.5973 45.2416 22.122 45.2416C21.6467 45.2416 21.1889 45.0623 20.84 44.7396C20.6762 44.5884 20.5447 44.4056 20.4536 44.2022C20.3625 43.9988 20.3136 43.779 20.3099 43.5561C20.3061 43.3333 20.3476 43.112 20.4319 42.9056C20.5161 42.6993 20.6413 42.5121 20.8 42.3556L20.84 42.3156L23.524 39.7756L23.564 39.7356C23.9154 39.4296 24.3677 39.2643 24.8336 39.2717C25.2996 39.2791 25.7464 39.4586 26.088 39.7756C26.2547 39.9293 26.3879 40.1157 26.4793 40.3233C26.5707 40.5309 26.6182 40.755 26.619 40.9818C26.6197 41.2086 26.5737 41.4331 26.4837 41.6413C26.3937 41.8494 26.2617 42.0368 26.096 42.1916V42.1916ZM20.616 37.0276L17.936 39.5636L17.892 39.6036C17.5408 39.9085 17.0894 40.073 16.6243 40.0656C16.1593 40.0582 15.7133 39.8795 15.372 39.5636C15.2045 39.4092 15.0708 39.2218 14.9793 39.0132C14.8879 38.8046 14.8406 38.5793 14.8406 38.3516C14.8406 38.1238 14.8879 37.8985 14.9793 37.6899C15.0708 37.4813 15.2045 37.2939 15.372 37.1396L18.052 34.6036C18.4011 34.2797 18.8597 34.0997 19.336 34.0997C19.8122 34.0997 20.2708 34.2797 20.62 34.6036C20.7838 34.7547 20.9152 34.9375 21.0063 35.141C21.0974 35.3444 21.1463 35.5642 21.1501 35.787C21.1538 36.0099 21.1123 36.2312 21.0281 36.4375C20.9438 36.6439 20.8186 36.831 20.66 36.9876L20.62 37.0276H20.616ZM14.048 32.8956L11.368 35.4356C11.0188 35.7594 10.5602 35.9394 10.084 35.9394C9.60774 35.9394 9.14911 35.7594 8.79997 35.4356C8.63246 35.2812 8.49876 35.0938 8.40731 34.8852C8.31586 34.6766 8.26865 34.4513 8.26865 34.2236C8.26865 33.9958 8.31586 33.7705 8.40731 33.5619C8.49876 33.3533 8.63246 33.1659 8.79997 33.0116L11.484 30.4716C11.8329 30.1488 12.2907 29.9696 12.766 29.9696C13.2413 29.9696 13.6991 30.1488 14.048 30.4716C14.2155 30.6259 14.3492 30.8133 14.4406 31.0219C14.5321 31.2305 14.5793 31.4558 14.5793 31.6836C14.5793 31.9113 14.5321 32.1366 14.4406 32.3452C14.3492 32.5538 14.2155 32.7412 14.048 32.8956V32.8956Z" fill="#BC363F" stroke="white" stroke-width="0.8" mask="url(#path-1-inside-1_225_3121)"/>
</svg>
