<svg width="80" height="80" viewBox="0 0 80 80" fill="none" xmlns="http://www.w3.org/2000/svg">
<path d="M63.9674 46.25L52.2283 23.75H70C71.3807 23.75 72.5 24.8693 72.5 26.25V43.75C72.5 45.1307 71.3807 46.25 70 46.25H63.9674Z" fill="#BC363F" fill-opacity="0.8"/>
<path d="M27.372 34.0996L41.25 7.5L71.25 65H37.7256C40.6946 61.6828 42.4999 57.3022 42.4999 52.5C42.4999 43.3838 35.994 35.787 27.372 34.0996Z" fill="#BC363F" fill-opacity="0.2"/>
<path d="M40 52.5C40 61.4746 32.7246 68.75 23.75 68.75C14.7754 68.75 7.5 61.4746 7.5 52.5C7.5 43.5254 14.7754 36.25 23.75 36.25C32.7246 36.25 40 43.5254 40 52.5Z" fill="#BC363F" fill-opacity="0.5"/>
</svg>
