<svg width="49" height="48" viewBox="0 0 49 48" fill="none" xmlns="http://www.w3.org/2000/svg">
<path d="M7.17267 5.86011C7.19099 5.66388 7.24779 5.47319 7.33984 5.29894C7.43188 5.12468 7.55736 4.97026 7.70911 4.84452C7.86085 4.71878 8.03589 4.62417 8.22422 4.5661C8.41254 4.50803 8.61046 4.48765 8.80667 4.50611L16.2967 5.20611C21.6007 5.73211 26.6827 6.36611 30.8527 7.08411C34.9467 7.79011 38.3807 8.60811 40.2287 9.58411C40.7257 9.82965 41.1742 10.163 41.5527 10.5681C41.9367 11.0081 42.2767 11.6721 42.1327 12.4821C42.0007 13.2261 41.5187 13.7461 41.0927 14.0821C40.5904 14.4555 40.0401 14.7595 39.4567 14.9861C36.9887 16.0081 32.2667 16.9961 24.8007 17.9721C20.0407 18.5961 17.0107 19.2021 15.2847 19.7521L15.4387 19.7981C16.2587 20.0401 17.3067 20.2781 18.5347 20.5041C20.9867 20.9541 24.0707 21.3401 27.3427 21.6321C29.8227 21.8521 32.4767 22.2061 34.7367 22.6521C35.8647 22.8761 36.9167 23.1261 37.8127 23.4041C38.6727 23.6721 39.5087 24.0021 40.1167 24.4241C40.4167 24.6321 40.7867 24.9441 41.0247 25.4021C41.3007 25.9281 41.3507 26.5621 41.0847 27.1621C40.8672 27.6131 40.5277 27.9942 40.1047 28.2621C39.7447 28.5061 39.3107 28.7121 38.8367 28.8941C36.9827 29.6101 33.6287 30.2781 28.3627 30.9061C23.1267 31.5321 19.9287 32.3281 18.1427 33.1401C17.2467 33.5461 16.8427 33.8961 16.6827 34.1061C16.5827 34.2341 16.5967 34.2721 16.6047 34.3001L16.6087 34.3081C16.6387 34.4281 16.7707 34.6941 17.1827 35.0881C17.5807 35.4701 18.1427 35.8781 18.8467 36.2941C20.2507 37.1241 22.0487 37.8881 23.7787 38.4781L30.2707 40.5721C30.4582 40.6325 30.632 40.7293 30.7821 40.8568C30.9323 40.9844 31.0558 41.1403 31.1457 41.3156C31.2356 41.4909 31.29 41.6823 31.306 41.8786C31.322 42.075 31.2991 42.2726 31.2387 42.4601C31.1783 42.6476 31.0815 42.8214 30.9539 42.9716C30.8264 43.1217 30.6705 43.2452 30.4951 43.3351C30.3198 43.425 30.1285 43.4795 29.9322 43.4954C29.7358 43.5114 29.5382 43.4885 29.3507 43.4281L22.8187 41.3221C20.9727 40.6901 18.9627 39.8481 17.3207 38.8781C16.5247 38.4231 15.7827 37.8797 15.1087 37.2581C14.5027 36.6781 13.9347 35.9441 13.7047 35.0641C13.4527 34.0941 13.6607 33.1221 14.2987 32.2841C14.8847 31.5161 15.7947 30.9101 16.9027 30.4081C19.1247 29.3981 22.7027 28.5601 28.0067 27.9281C32.5807 27.3821 35.4547 26.8281 37.0927 26.3241C36.1267 26.028 35.1452 25.785 34.1527 25.5961C31.8107 25.1512 29.4477 24.8255 27.0727 24.6201C23.7507 24.3221 20.5667 23.9281 17.9927 23.4541C16.8446 23.2531 15.7078 22.9928 14.5867 22.6741C13.6647 22.4001 12.7867 22.0661 12.1627 21.6241C11.7615 21.3549 11.443 20.9797 11.2427 20.5401C11.1193 20.2515 11.0659 19.9379 11.0867 19.6247C11.1076 19.3116 11.2021 19.0078 11.3627 18.7381C11.6307 18.2741 12.0387 17.9581 12.3947 17.7381C12.7687 17.5061 13.2167 17.3021 13.7147 17.1181C15.6687 16.3921 19.1247 15.6901 24.4107 14.9981C31.9067 14.0181 36.2547 13.0661 38.3107 12.2141L38.5607 12.1041C37.0967 11.4241 34.2407 10.7121 30.3447 10.0401C26.2707 9.34011 21.2707 8.71411 16.0047 8.19211L8.52667 7.49211C8.13076 7.4551 7.76574 7.26241 7.51185 6.95638C7.25795 6.65036 7.13596 6.25604 7.17267 5.86011V5.86011Z" fill="#BC363F"/>
</svg>
