<svg width="49" height="48" viewBox="0 0 49 48" fill="none" xmlns="http://www.w3.org/2000/svg">
<path d="M24.6626 3.99609C27.0706 3.99609 29.3786 4.42209 31.5166 5.20009L29.1266 7.58809C25.5096 6.60457 21.669 6.84373 18.202 8.26839C14.735 9.69304 11.8359 12.2233 9.95544 15.4658C8.07501 18.7083 7.31867 22.4813 7.80402 26.1981C8.28937 29.9148 9.98921 33.367 12.6392 36.0179C15.2892 38.6688 18.7409 40.3698 22.4575 40.8564C26.1741 41.343 29.9473 40.5879 33.1904 38.7086C36.4335 36.8292 38.9648 33.931 40.3906 30.4644C41.8164 26.9979 42.0569 23.1574 41.0746 19.5401L43.4626 17.1521C44.2613 19.3468 44.6688 21.6646 44.6666 24.0001C44.6666 35.0481 35.7106 44.0041 24.6626 44.0041C13.6146 44.0041 4.65857 35.0481 4.65857 24.0001C4.65857 12.9521 13.6146 3.99609 24.6626 3.99609V3.99609ZM24.6626 12.0001C25.6759 11.9996 26.6853 12.1273 27.6666 12.3801V15.5141C25.7421 14.8332 23.6433 14.8269 21.7146 15.496C19.786 16.1652 18.1422 17.4701 17.053 19.1967C15.9638 20.9232 15.4939 22.9687 15.7204 24.9975C15.9469 27.0263 16.8565 28.9178 18.2997 30.3616C19.7429 31.8053 21.6341 32.7155 23.6628 32.9428C25.6915 33.1701 27.7372 32.7009 29.4641 31.6123C31.1911 30.5237 32.4966 28.8804 33.1665 26.952C33.8363 25.0237 33.8307 22.9249 33.1506 21.0001H36.2846C36.9102 23.4233 36.7626 25.9815 35.8624 28.3167C34.9621 30.6519 33.3543 32.6471 31.2639 34.0232C29.1735 35.3993 26.7051 36.0874 24.2043 35.9912C21.7034 35.895 19.2953 35.0193 17.3168 33.4866C15.3383 31.954 13.8885 29.8411 13.1703 27.4437C12.4521 25.0462 12.5015 22.4842 13.3115 20.1163C14.1215 17.7483 15.6516 15.6928 17.6877 14.2375C19.7237 12.7822 22.1639 11.9999 24.6666 12.0001H24.6626ZM28.6626 24.0001C28.6623 24.8598 28.385 25.6966 27.8719 26.3863C27.3587 27.0761 26.637 27.5822 25.8136 27.8296C24.9903 28.077 24.1091 28.0525 23.3008 27.7599C22.4924 27.4672 21.7998 26.9218 21.3257 26.2046C20.8516 25.4874 20.6212 24.6366 20.6687 23.7782C20.7161 22.9198 21.0388 22.0995 21.589 21.4389C22.1392 20.7783 22.8876 20.3125 23.7233 20.1106C24.559 19.9088 25.4375 19.9815 26.2286 20.3181L29.6686 16.8781L29.6666 10.5001C29.6669 10.1024 29.8252 9.72113 30.1066 9.44009L35.1066 4.44009C35.3163 4.23058 35.5835 4.08793 35.8743 4.03016C36.1651 3.97239 36.4665 4.0021 36.7404 4.11552C37.0143 4.22894 37.2485 4.421 37.4133 4.66743C37.5782 4.91386 37.6663 5.20361 37.6666 5.50009V11.0001H43.1666C43.463 11.0004 43.7528 11.0885 43.9992 11.2533C44.2457 11.4181 44.4377 11.6523 44.5511 11.9262C44.6646 12.2002 44.6943 12.5016 44.6365 12.7924C44.5787 13.0832 44.4361 13.3503 44.2266 13.5601L39.2266 18.5601C38.9455 18.8415 38.5643 18.9997 38.1666 19.0001H31.7866L28.3466 22.4401C28.5506 22.9201 28.6626 23.4461 28.6626 24.0001V24.0001ZM37.5446 16.0001L39.5446 14.0001H36.1646C35.7667 14.0001 35.3852 13.8421 35.1039 13.5608C34.8226 13.2795 34.6646 12.8979 34.6646 12.5001V9.12009L32.6666 11.1201V15.8821C32.7089 15.919 32.749 15.9584 32.7866 16.0001H37.5466H37.5446Z" fill="#BC363F"/>
</svg>
