<svg width="48" height="48" viewBox="0 0 48 48" fill="none" xmlns="http://www.w3.org/2000/svg">
<path d="M21 32.9192C19.96 32.8038 18.9371 32.5672 17.952 32.2142C17.982 31.5062 18 30.7682 18 30.0002V29.7602V28.9892C18.93 29.4332 19.941 29.7422 21 29.8952V22.5002C21 21.3067 21.4741 20.1621 22.318 19.3182C23.162 18.4743 24.3065 18.0002 25.5 18.0002H32.895C32.6558 16.3378 32.0213 14.7571 31.0447 13.3907C30.0682 12.0244 28.7782 10.9121 27.2829 10.1475C25.7876 9.38277 24.1307 8.98792 22.4513 8.99605C20.7718 9.00418 19.1188 9.41505 17.631 10.1942C17.3937 9.21297 17.0029 8.27542 16.473 7.41618C18.4178 6.44545 20.5683 5.95868 22.7415 5.99724C24.9148 6.0358 27.0466 6.59856 28.9558 7.63766C30.8649 8.67676 32.4949 10.1615 33.7073 11.9656C34.9196 13.7698 35.6783 15.8399 35.919 18.0002H40.5C41.6935 18.0002 42.8381 18.4743 43.682 19.3182C44.5259 20.1621 45 21.3067 45 22.5002V37.5002C45 38.6936 44.5259 39.8382 43.682 40.6822C42.8381 41.5261 41.6935 42.0002 40.5 42.0002H25.5C24.3065 42.0002 23.162 41.5261 22.318 40.6822C21.4741 39.8382 21 38.6936 21 37.5002V32.9192ZM35.919 21.0002C35.5782 24.044 34.2128 26.8815 32.0471 29.0473C29.8814 31.213 27.0438 32.5783 24 32.9192V37.5002C24 37.898 24.1581 38.2795 24.4394 38.5608C24.7207 38.8421 25.1022 39.0002 25.5 39.0002H40.5C40.8978 39.0002 41.2794 38.8421 41.5607 38.5608C41.842 38.2795 42 37.898 42 37.5002V22.5002C42 22.1024 41.842 21.7208 41.5607 21.4395C41.2794 21.1582 40.8978 21.0002 40.5 21.0002H35.919ZM32.895 21.0002H25.5C25.1022 21.0002 24.7207 21.1582 24.4394 21.4395C24.1581 21.7208 24 22.1024 24 22.5002V29.8952C26.244 29.5708 28.3228 28.5293 29.9259 26.9261C31.5291 25.3229 32.5707 23.2441 32.895 21.0002V21.0002Z" fill="#BC363F"/>
<path d="M14.385 22.6831C14.07 21.5251 13.56 20.3641 12.684 19.4731C14.1 18.1321 15 15.9961 15 13.5001C15 11.4091 14.577 9.97206 13.812 8.82306C13.4726 8.32887 13.0802 7.87318 12.642 7.46406C12.474 7.3019 12.304 7.14189 12.132 6.98406C11.949 6.81306 11.781 6.65706 11.562 6.43806C11.112 5.98806 11.061 5.62806 11.061 5.43906C11.0615 5.334 11.0787 5.2297 11.112 5.13006C11.2492 4.83343 11.2857 4.50013 11.2161 4.18084C11.1464 3.86155 10.9744 3.57373 10.7262 3.36116C10.478 3.1486 10.1671 3.02291 9.84091 3.00322C9.51471 2.98352 9.19099 3.0709 8.919 3.25206L8.913 3.25506L8.904 3.26106L8.877 3.27906L8.787 3.33906C8.337 3.66003 7.90345 4.00346 7.488 4.36806C6.738 5.03106 5.76 6.01206 5.067 7.18206C4.46205 8.15204 3.97653 9.19158 3.621 10.2781C3.261 11.3551 3 12.5221 3 13.5001C3 15.9961 3.9 18.1291 5.316 19.4761C4.44 20.3641 3.93 21.5251 3.615 22.6861C3 24.9421 3 27.7321 3 29.8891V30.0001C3 36.1741 4.155 39.8401 5.463 42.0211C6.12 43.1131 6.804 43.8181 7.377 44.2621C7.68232 44.5002 8.0146 44.7016 8.367 44.8621C8.57079 44.9365 8.78373 44.9829 9 45.0001C9.252 45.0001 9.633 44.8621 9.633 44.8621C9.9854 44.7016 10.3177 44.5002 10.623 44.2621C11.193 43.8181 11.883 43.1131 12.537 42.0211C13.845 39.8431 15 36.1741 15 30.0001V29.8921C15 27.7321 15 24.9451 14.385 22.6831ZM7.461 21.5731C7.8 21.2311 8.253 21.0001 9 21.0001C9.75 21.0001 10.2 21.2341 10.539 21.5701C10.917 21.9511 11.244 22.5691 11.49 23.4721C11.988 25.3051 12 27.7111 12 30.0001C12 35.8261 10.905 38.9101 9.963 40.4791C9.603 41.0791 9.264 41.4661 9 41.7091C8.6228 41.3463 8.29861 40.9323 8.037 40.4791C7.095 38.9071 6 35.8261 6 30.0001C6 27.7111 6.012 25.3051 6.51 23.4721C6.756 22.5721 7.083 21.9511 7.461 21.5701V21.5731ZM9 18.0001C7.845 18.0001 6 16.7161 6 13.5001C6 12.9811 6.156 12.1591 6.468 11.2291C6.75232 10.3511 7.1443 9.51167 7.635 8.73006C7.896 8.28906 8.235 7.86006 8.601 7.46706C8.808 7.83306 9.081 8.20206 9.441 8.56206C9.66 8.78106 9.945 9.04506 10.188 9.27306L10.56 9.62106C10.875 9.92706 11.118 10.1941 11.313 10.4911C11.673 11.0281 12 11.8411 12 13.5001C12 16.7161 10.155 18.0001 9 18.0001Z" fill="#BC363F"/>
</svg>
