<svg width="49" height="48" viewBox="0 0 49 48" fill="none" xmlns="http://www.w3.org/2000/svg">
<path d="M33.8473 18.606C34.1406 18.3371 34.3151 17.9626 34.3324 17.5651C34.3496 17.1675 34.2082 16.7793 33.9393 16.486C33.6704 16.1927 33.2959 16.0182 32.8984 16.0009C32.5008 15.9837 32.1126 16.1251 31.8193 16.394L20.8793 26.424L16.8933 22.44C16.609 22.175 16.2329 22.0308 15.8443 22.0376C15.4557 22.0445 15.0849 22.2019 14.8101 22.4768C14.5352 22.7516 14.3778 23.1224 14.371 23.511C14.3641 23.8996 14.5084 24.2756 14.7733 24.56L19.7733 29.56C20.0465 29.8334 20.4147 29.9908 20.8011 29.9993C21.1875 30.0079 21.5623 29.867 21.8473 29.606L33.8473 18.606V18.606ZM40.8333 10C35.5073 10 30.3173 8.114 25.2333 4.3C24.9737 4.10527 24.6579 4 24.3333 4C24.0088 4 23.693 4.10527 23.4333 4.3C18.3493 8.114 13.1593 10 7.83331 10C7.43549 10 7.05396 10.158 6.77265 10.4393C6.49135 10.7206 6.33331 11.1022 6.33331 11.5V22C6.33331 32.002 12.2493 39.352 23.7833 43.896C24.1368 44.0353 24.5299 44.0353 24.8833 43.896C36.4173 39.352 42.3333 32 42.3333 22V11.5C42.3333 11.1022 42.1753 10.7206 41.894 10.4393C41.6127 10.158 41.2311 10 40.8333 10ZM9.33331 12.956C14.4873 12.652 19.4933 10.776 24.3333 7.356C29.1733 10.776 34.1793 12.652 39.3333 12.956V22C39.3333 30.512 34.4273 36.758 24.3333 40.884C14.2393 36.758 9.33331 30.512 9.33331 22V12.956Z" fill="#BC363F"/>
</svg>
