<svg width="49" height="48" viewBox="0 0 49 48" fill="none" xmlns="http://www.w3.org/2000/svg">
<path d="M19.8333 3C19.4355 3 19.054 3.15804 18.7727 3.43934C18.4913 3.72064 18.3333 4.10218 18.3333 4.5C18.3333 4.89782 18.4913 5.27936 18.7727 5.56066C19.054 5.84196 19.4355 6 19.8333 6H28.8333C29.2311 6 29.6127 5.84196 29.894 5.56066C30.1753 5.27936 30.3333 4.89782 30.3333 4.5C30.3333 4.10218 30.1753 3.72064 29.894 3.43934C29.6127 3.15804 29.2311 3 28.8333 3H19.8333ZM24.3333 16.5C24.7311 16.5 25.1127 16.658 25.394 16.9393C25.6753 17.2206 25.8333 17.6022 25.8333 18V27C25.8333 27.3978 25.6753 27.7794 25.394 28.0607C25.1127 28.342 24.7311 28.5 24.3333 28.5C23.9355 28.5 23.554 28.342 23.2727 28.0607C22.9913 27.7794 22.8333 27.3978 22.8333 27V18C22.8333 17.6022 22.9913 17.2206 23.2727 16.9393C23.554 16.658 23.9355 16.5 24.3333 16.5V16.5ZM42.3333 27C42.3333 36.9405 34.2738 45 24.3333 45C14.3928 45 6.33331 36.9405 6.33331 27C6.33331 17.0595 14.3928 9 24.3333 9C34.2738 9 42.3333 17.0595 42.3333 27ZM39.3333 27C39.3333 18.7155 32.6178 12 24.3333 12C16.0488 12 9.33331 18.7155 9.33331 27C9.33331 35.2845 16.0488 42 24.3333 42C32.6178 42 39.3333 35.2845 39.3333 27ZM40.3953 9.4395C40.2569 9.29624 40.0914 9.18196 39.9084 9.10335C39.7254 9.02473 39.5286 8.98336 39.3294 8.98162C39.1302 8.97989 38.9327 9.01785 38.7484 9.09327C38.564 9.16869 38.3966 9.28007 38.2557 9.42091C38.1149 9.56175 38.0035 9.72922 37.9281 9.91357C37.8527 10.0979 37.8147 10.2954 37.8164 10.4946C37.8182 10.6938 37.8595 10.8906 37.9382 11.0736C38.0168 11.2566 38.131 11.4221 38.2743 11.5605L41.2743 14.5605C41.4137 14.6998 41.5791 14.8102 41.7612 14.8856C41.9432 14.9609 42.1383 14.9996 42.3353 14.9996C42.5324 14.9995 42.7274 14.9606 42.9094 14.8851C43.0914 14.8097 43.2568 14.6991 43.3961 14.5598C43.5353 14.4204 43.6458 14.255 43.7211 14.0729C43.7964 13.8908 43.8352 13.6957 43.8351 13.4987C43.835 13.3017 43.7962 13.1066 43.7207 12.9246C43.6452 12.7426 43.5347 12.5773 43.3953 12.438L40.3953 9.438V9.4395Z" fill="#BC363F"/>
</svg>
