<svg width="48" height="48" viewBox="0 0 48 48" fill="none" xmlns="http://www.w3.org/2000/svg">
<path d="M35.998 6C36.2336 5.99983 36.4659 6.05515 36.6761 6.16147C36.8863 6.2678 37.0685 6.42214 37.208 6.612L37.318 6.786L43.844 18.842L43.92 19.028L43.944 19.108L43.984 19.312L43.996 19.5C43.9961 19.6352 43.9779 19.7697 43.942 19.9L43.848 20.15L43.772 20.288C43.7278 20.3601 43.6776 20.4283 43.622 20.492L43.742 20.336L43.692 20.406L25.192 41.416C25.0384 41.6203 24.8334 41.7804 24.598 41.88L24.402 41.946L24.246 41.98L24 42L23.8 41.988L23.564 41.936C23.4418 41.9009 23.3248 41.8498 23.216 41.784L23.198 41.77C23.1031 41.7117 23.0157 41.6418 22.938 41.562L4.358 20.47L4.306 20.406L4.226 20.288C4.11268 20.105 4.04036 19.8996 4.014 19.686L4 19.5L4.006 19.368L4.032 19.19C4.04446 19.1317 4.06049 19.0743 4.08 19.018L4.124 18.9L4.18 18.786L10.68 6.786C10.7921 6.57892 10.9513 6.40112 11.1448 6.26701C11.3384 6.13289 11.5608 6.04622 11.794 6.014L11.998 6H35.998ZM29.994 21H17.996L23.996 36.374L29.994 21ZM14.778 21H8.818L19.52 33.148L14.778 21ZM39.174 21H33.216L28.48 33.14L39.174 21ZM17.942 9H12.89L8.014 18H15.062L17.942 9ZM26.902 9H21.092L18.21 18H29.78L26.9 9H26.902ZM35.102 9H30.052L32.932 18H39.976L35.104 9H35.102Z" fill="#BC363F"/>
</svg>
