<svg width="32" height="32" viewBox="0 0 32 32" fill="none" xmlns="http://www.w3.org/2000/svg">
<path d="M16 26.6667C21.891 26.6667 26.6667 21.891 26.6667 16C26.6667 10.109 21.891 5.33333 16 5.33333C10.109 5.33333 5.33333 10.109 5.33333 16C5.33333 21.891 10.109 26.6667 16 26.6667Z" fill="#BC363F"/>
<path fill-rule="evenodd" clip-rule="evenodd" d="M32 16C32 24.8366 24.8366 32 16 32C7.16344 32 0 24.8366 0 16C0 7.16344 7.16344 0 16 0C24.8366 0 32 7.16344 32 16ZM30.6667 16C30.6667 24.1002 24.1002 30.6667 16 30.6667C7.89982 30.6667 1.33333 24.1002 1.33333 16C1.33333 7.89982 7.89982 1.33333 16 1.33333C24.1002 1.33333 30.6667 7.89982 30.6667 16Z" fill="#BC363F"/>
<path fill-rule="evenodd" clip-rule="evenodd" d="M16 26C21.5228 26 26 21.5228 26 16C26 10.4772 21.5228 6 16 6C10.4772 6 6 10.4772 6 16C6 21.5228 10.4772 26 16 26ZM16 32C24.8366 32 32 24.8366 32 16C32 7.16344 24.8366 0 16 0C7.16344 0 0 7.16344 0 16C0 24.8366 7.16344 32 16 32ZM16 30.6667C24.1002 30.6667 30.6667 24.1002 30.6667 16C30.6667 7.89982 24.1002 1.33333 16 1.33333C7.89982 1.33333 1.33333 7.89982 1.33333 16C1.33333 24.1002 7.89982 30.6667 16 30.6667ZM26.6667 16C26.6667 21.891 21.891 26.6667 16 26.6667C10.109 26.6667 5.33333 21.891 5.33333 16C5.33333 10.109 10.109 5.33333 16 5.33333C21.891 5.33333 26.6667 10.109 26.6667 16Z" fill="#BC363F"/>
</svg>
