<svg width="112" height="48" viewBox="0 0 112 48" fill="none" xmlns="http://www.w3.org/2000/svg">
<path d="M7.505 14.2957L17.641 24.4684L24.4147 17.7297V29.795H27.7515V9.60059L17.641 19.6968L7.505 9.60059V14.2957Z" fill="#CC233A"/>
<path d="M47.67 15.8097C47.1142 14.5742 46.4072 13.5132 45.4704 12.5796C44.5611 11.6716 43.475 10.9381 42.2613 10.4086C41.022 9.87908 39.7336 9.60059 38.3431 9.60059H31.6205L34.9808 12.9836H38.3431C39.2525 12.9836 40.1382 13.1602 40.9474 13.4877C41.7565 13.8407 42.4891 14.3467 43.096 14.9527C43.7264 15.5842 44.2076 16.2902 44.5611 17.0982C44.9146 17.9298 45.0913 18.7888 45.0913 19.6968C45.0913 20.6068 44.9146 21.4639 44.5611 22.2974C44.2076 23.1054 43.7264 23.8114 43.1195 24.4429C42.5146 25.0744 41.7801 25.553 40.9729 25.906C40.1637 26.2355 39.278 26.412 38.3431 26.412H34.9808L31.6205 29.795H38.3431C39.7336 29.795 41.0475 29.5165 42.2613 28.987C43.4986 28.4555 44.5866 27.724 45.4959 26.816C46.4072 25.8824 47.1142 24.8214 47.67 23.5839C48.2003 22.3739 48.4537 21.0854 48.4537 19.6968C48.4537 18.3083 48.2003 17.0218 47.67 15.8097V15.8097Z" fill="#CC233A"/>
<path d="M62.7141 19.0664V9.34082L58.3325 15.8579L53.9529 9.34082V19.0664H55.4082V14.1281L58.3325 18.4643L61.2451 14.1281V19.0664H62.7141ZM70.4953 19.0664H72.0901L68.0482 9.34082L63.9926 19.0664H65.5992L66.3906 17.0738H69.7038L70.4953 19.0664ZM66.9189 15.7696L68.0482 12.9377L69.1775 15.7696H66.9189ZM78.1017 15.8951C77.9643 15.4558 77.6873 15.044 77.2847 14.6792C77.0844 14.4909 76.8095 14.2281 76.5836 14.0026L75.0262 12.5121C74.6373 12.1355 74.6255 11.8472 74.6746 11.6707C74.7512 11.4079 75.0262 11.1961 75.3522 11.1334C75.6173 11.0824 76.1064 11.0824 76.5836 11.659L77.7247 10.7431C77.3613 10.3057 76.9351 9.99194 76.4579 9.80366C76.0062 9.64088 75.529 9.60362 75.0772 9.70364C74.6628 9.77817 74.274 9.96644 73.9597 10.2312C73.62 10.5175 73.3823 10.8686 73.2684 11.2706C73.1565 11.6472 73.1683 12.061 73.294 12.4493C73.4197 12.8494 73.6573 13.2259 74.0108 13.5633L75.1519 14.6419C75.2029 14.6929 75.8805 15.3558 76.2949 15.7461C76.5581 15.9952 76.8468 16.3717 76.7211 16.7973C76.6072 17.1738 76.2183 17.4876 75.7411 17.5759C75.4661 17.6386 75.1637 17.6131 74.8887 17.4994C74.5489 17.3739 74.2347 17.1248 73.9715 16.7738L72.8167 17.6759C73.2566 18.2388 73.7712 18.6271 74.3604 18.8664C74.7119 19.0036 75.089 19.0664 75.4661 19.0664C75.6546 19.0664 75.8432 19.0546 76.0298 19.0174C77.0471 18.8154 77.8621 18.1015 78.1273 17.1993C78.253 16.7738 78.2392 16.3227 78.1017 15.8951V15.8951ZM84.4394 15.8951C84.302 15.4558 84.025 15.044 83.6244 14.6792C83.4241 14.4909 83.1472 14.2281 82.9213 14.0026L81.3658 12.5121C80.975 12.1355 80.9632 11.8472 81.0143 11.6707C81.0889 11.4079 81.3658 11.1961 81.6919 11.1334C81.955 11.0824 82.4441 11.0824 82.9213 11.659L84.0643 10.7431C83.699 10.3057 83.2729 9.99194 82.7956 9.80366C82.3439 9.64088 81.8667 9.60362 81.4149 9.70364C81.0005 9.77817 80.6117 9.96644 80.2975 10.2312C79.9597 10.5175 79.72 10.8686 79.6081 11.2706C79.4942 11.6472 79.5079 12.061 79.6336 12.4493C79.7593 12.8494 79.997 13.2259 80.3485 13.5633L81.4896 14.6419C81.5406 14.6929 82.2182 15.3558 82.6326 15.7461C82.8958 15.9952 83.1845 16.3717 83.0588 16.7973C82.9468 17.1738 82.558 17.4876 82.0807 17.5759C81.8038 17.6386 81.5033 17.6131 81.2264 17.4994C80.8886 17.3739 80.5744 17.1248 80.3112 16.7738L79.1564 17.6759C79.5944 18.2388 80.1089 18.6271 80.7001 18.8664C81.0516 19.0036 81.4287 19.0664 81.8038 19.0664C81.9923 19.0664 82.1809 19.0546 82.3694 19.0174C83.3848 18.8154 84.2018 18.1015 84.465 17.1993C84.5907 16.7738 84.5789 16.3227 84.4394 15.8951V15.8951Z" fill="#917A6C"/>
<path d="M59.6877 21.7224C59.287 21.2713 58.7842 20.9202 58.195 20.6947C57.5921 20.4437 56.9145 20.3319 56.1604 20.3319H55.4082H53.9529V29.6319H54.4419H56.1604C56.9145 29.6319 57.5921 29.5064 58.195 29.2671C58.7842 29.0416 59.287 28.6905 59.6877 28.2394C60.4281 27.4255 60.8189 26.2978 60.8189 24.9819C60.8189 23.6659 60.4281 22.5363 59.6877 21.7224V21.7224ZM58.6094 27.2628C58.0576 27.8648 57.2406 28.1786 56.1604 28.1786H55.4082V21.7851H56.1604C57.2406 21.7851 58.0576 22.0852 58.6094 22.6991C59.0985 23.2384 59.3616 24.0287 59.3616 24.9819C59.3616 25.9213 59.0985 26.7234 58.6094 27.2628ZM63.8807 21.6341H68.0109V20.3319H63.8689H62.4254V29.6319H63.8689H68.0109V28.3159H63.8807V25.433H67.2823V24.117H63.8807V21.6341V21.6341ZM74.6373 26.4606C74.4999 26.0213 74.2229 25.6075 73.8223 25.2447C73.62 25.0564 73.345 24.7936 73.1192 24.5681L71.5618 23.0756C71.1729 22.6991 71.1611 22.4127 71.2102 22.2362C71.2868 21.9734 71.5618 21.7596 71.8878 21.6969C72.1529 21.6478 72.6419 21.6478 73.1192 22.2244L74.2603 21.3086C73.8969 20.8693 73.4707 20.5574 72.9935 20.3691C72.5418 20.2064 72.0645 20.1691 71.6128 20.2691C71.1984 20.3437 70.8096 20.5319 70.4953 20.7947C70.1556 21.083 69.9179 21.4341 69.806 21.8361C69.6921 22.2107 69.7039 22.6245 69.8296 23.0128C69.9552 23.4149 70.1948 23.7914 70.5464 24.1288L71.6875 25.2074C71.7385 25.2565 72.4161 25.9213 72.8305 26.3096C73.0937 26.5606 73.3824 26.9372 73.2567 27.3628C73.1447 27.7393 72.7539 28.0531 72.2786 28.1394C72.0017 28.2022 71.7012 28.1786 71.4243 28.0649C71.0845 27.9394 70.7723 27.6883 70.5071 27.3373L69.3523 28.2394C69.7922 28.8043 70.3068 29.1926 70.8979 29.4318C71.2495 29.5691 71.6246 29.6319 72.0017 29.6319C72.1902 29.6319 72.3788 29.6182 72.5673 29.5809C73.5827 29.3808 74.3997 28.667 74.6629 27.7648C74.7886 27.3373 74.7748 26.8862 74.6373 26.4606V26.4606ZM77.6245 29.6319V20.3319H76.1692V29.6319H77.6245ZM86.7491 24.8054H83.536V26.1213H85.2938V27.8393C85.282 27.8393 85.282 27.8393 85.282 27.8393C85.119 27.9276 84.9422 27.9904 84.7675 28.0394C84.7675 28.0394 84.7537 28.0531 84.7419 28.0531C84.7282 28.0531 84.7046 28.0531 84.6909 28.0649C84.6791 28.0649 84.6673 28.0649 84.6535 28.0767C84.6418 28.0767 84.628 28.0767 84.6162 28.0767C84.6044 28.0904 84.5789 28.0904 84.5652 28.0904C84.5534 28.1021 84.5534 28.1021 84.5416 28.1021C84.4532 28.1139 84.3531 28.1394 84.2647 28.1531C84.2529 28.1531 84.2529 28.1531 84.2391 28.1531C84.2274 28.1531 84.2018 28.1531 84.19 28.1531C84.1763 28.1531 84.1645 28.1531 84.1645 28.1649C84.139 28.1649 84.1272 28.1649 84.1017 28.1649C84.0879 28.1649 84.0761 28.1649 84.0644 28.1649C84.0506 28.1649 84.0388 28.1649 84.0251 28.1649C84.0133 28.1649 83.9878 28.1649 83.976 28.1649C83.9642 28.1786 83.9504 28.1786 83.9387 28.1786C83.9131 28.1786 83.8758 28.1786 83.8503 28.1786C82.996 28.1786 82.1927 27.8393 81.5917 27.2373C81.2029 26.8489 80.9259 26.3724 80.7747 25.8468C80.7119 25.6212 80.6746 25.382 80.6628 25.1447C80.649 25.0819 80.649 25.0309 80.649 24.9819C80.649 24.9191 80.649 24.8681 80.6628 24.8054C80.6628 24.7681 80.6628 24.7171 80.6628 24.6681C80.6746 24.5426 80.7001 24.4171 80.7256 24.2915C80.7256 24.2798 80.7256 24.2798 80.7374 24.266C80.812 23.9287 80.9377 23.6149 81.1263 23.3149C81.1263 23.3011 81.14 23.2776 81.1518 23.2639C81.1773 23.2266 81.2029 23.1893 81.2264 23.1521C81.2264 23.1521 81.2402 23.1384 81.252 23.1266C81.303 23.0521 81.3521 22.9756 81.415 22.9011C81.4287 22.9011 81.4287 22.8873 81.4287 22.8873C81.4778 22.8246 81.5407 22.7755 81.5917 22.7245C81.7547 22.55 81.9433 22.399 82.1436 22.2735C82.1691 22.2617 82.1927 22.248 82.2064 22.2362C82.6955 21.9361 83.2611 21.7851 83.8503 21.7851C83.8758 21.7851 83.9131 21.7851 83.9387 21.7851C83.9387 21.7851 83.9504 21.7851 83.9642 21.7851C83.976 21.7851 84.0015 21.7851 84.0133 21.7851C84.0251 21.7851 84.0388 21.7851 84.0506 21.7851C84.0644 21.7851 84.0761 21.7969 84.0879 21.7969C84.1135 21.7969 84.139 21.7969 84.1645 21.7969C84.1763 21.7969 84.19 21.7969 84.2018 21.7969C84.2136 21.8106 84.2391 21.8106 84.2529 21.8106C84.2647 21.8106 84.2647 21.8106 84.2765 21.8106C84.2902 21.8106 84.3138 21.8224 84.3275 21.8224C84.3393 21.8224 84.3393 21.8224 84.3531 21.8224C84.4022 21.8361 84.465 21.8361 84.5161 21.8479C84.5278 21.8597 84.5416 21.8597 84.5416 21.8597C84.5652 21.8597 84.5789 21.8597 84.5907 21.8734C84.6044 21.8734 84.6162 21.8734 84.628 21.8734C84.6418 21.8852 84.6535 21.8852 84.6673 21.8852C84.8539 21.9361 85.0562 22.0107 85.2427 22.0989C85.4686 22.2107 85.6827 22.3362 85.8712 22.499V20.783C85.8712 20.783 85.8712 20.783 85.8594 20.783C85.8339 20.7692 85.8084 20.7575 85.7828 20.7457C85.771 20.7457 85.771 20.732 85.771 20.732C85.2683 20.5064 84.7419 20.3809 84.2018 20.3437C84.1645 20.3319 84.1272 20.3319 84.0879 20.3319C84.0879 20.3319 84.0879 20.3319 84.0761 20.3319C84.0506 20.3319 84.0133 20.3319 83.976 20.3319H83.9642C83.9249 20.3319 83.8876 20.3319 83.8503 20.3319C83.2218 20.3319 82.6071 20.4437 82.0434 20.6947C81.4778 20.9202 80.9888 21.2595 80.5626 21.6851C80.1345 22.1107 79.7967 22.6128 79.5571 23.1639C79.345 23.6659 79.231 24.2052 79.1937 24.7426C79.1937 24.8191 79.1937 24.9054 79.1937 24.9819C79.1937 25.1309 79.2055 25.2937 79.2193 25.4447C79.2566 25.9095 79.3823 26.3606 79.5571 26.7862C79.7967 27.351 80.1345 27.8393 80.5626 28.2649C80.8631 28.5787 81.2146 28.8415 81.5917 29.0416C81.7292 29.1298 81.8804 29.2063 82.0434 29.2671C82.1063 29.2926 82.1691 29.3181 82.232 29.3436C82.2811 29.3554 82.3184 29.3808 82.3695 29.3926C82.3695 29.3926 82.3695 29.3926 82.3812 29.3926C82.8467 29.5554 83.3475 29.6319 83.8503 29.6319C83.8876 29.6319 83.9249 29.6319 83.9642 29.6319H83.976C84.0133 29.6319 84.0506 29.6319 84.0761 29.6319C84.0879 29.6319 84.0879 29.6319 84.0879 29.6319C84.6791 29.5946 85.2309 29.4691 85.7573 29.2298C85.771 29.2181 85.771 29.2181 85.771 29.2181C85.7966 29.2063 85.8339 29.1926 85.8594 29.1808C85.883 29.1671 85.9085 29.1553 85.9203 29.1435C85.934 29.1435 85.934 29.1435 85.9458 29.1435C85.9596 29.1298 85.9596 29.1298 85.9714 29.118C85.9969 29.118 86.0224 29.1043 86.0342 29.0926C86.046 29.0808 86.0597 29.0808 86.0715 29.0671C86.0971 29.0553 86.1088 29.0553 86.1344 29.0416C86.1481 29.0298 86.1599 29.0298 86.1717 29.018C86.1854 29.0043 86.1972 29.0043 86.211 28.9925C86.2345 28.9788 86.2483 28.967 86.2601 28.9553C86.2856 28.9553 86.2974 28.9415 86.3111 28.9298C86.3229 28.9298 86.3347 28.918 86.3484 28.9043C86.3602 28.9043 86.3858 28.8925 86.3975 28.8788C86.4113 28.867 86.4113 28.867 86.4231 28.867L86.7491 28.6415V26.1213V24.8054V24.8054ZM95.5987 30.0575V20.3319H94.1297V26.2978L88.281 19.8926V29.6319H89.7363V23.6522L95.5987 30.0575V30.0575ZM102.453 26.4606C102.313 26.0213 102.039 25.6075 101.636 25.2447C101.436 25.0564 101.159 24.7936 100.933 24.5681L99.3774 23.0756C98.9885 22.6991 98.9748 22.4127 99.0258 22.2362C99.1005 21.9734 99.3774 21.7596 99.7034 21.6969C99.9666 21.6478 100.456 21.6478 100.933 22.2244L102.076 21.3086C101.711 20.8693 101.284 20.5574 100.807 20.3691C100.355 20.2064 99.8782 20.1691 99.4265 20.2691C99.0121 20.3437 98.6232 20.5319 98.3109 20.7947C97.9712 21.083 97.7316 21.4341 97.6196 21.8361C97.5057 22.2107 97.5195 22.6245 97.6452 23.0128C97.7708 23.4149 98.0085 23.7914 98.36 24.1288L99.5031 25.2074C99.5522 25.2565 100.23 25.9213 100.644 26.3096C100.909 26.5606 101.198 26.9372 101.072 27.3628C100.958 27.7393 100.569 28.0531 100.092 28.1394C99.8153 28.2022 99.5148 28.1786 99.2399 28.0649C98.9001 27.9394 98.5859 27.6883 98.3227 27.3373L97.1679 28.2394C97.6078 28.8043 98.1224 29.1926 98.7116 29.4318C99.0631 29.5691 99.4402 29.6319 99.8153 29.6319C100.004 29.6319 100.192 29.6182 100.381 29.5809C101.398 29.3808 102.213 28.667 102.477 27.7648C102.602 27.3373 102.59 26.8862 102.453 26.4606V26.4606Z" fill="#917A6C"/>
<path d="M53.4735 1H111V39.2923H2L2.96823 37.6175H109.323V2.67486H52.5053L53.4735 1Z" fill="#917A6C"/>
<path d="M13.3498 46.3525C13.2752 46.3525 13.1927 46.3505 13.1043 46.3466C13.0159 46.3446 12.9276 46.3388 12.8392 46.3309C12.7508 46.325 12.6624 46.3152 12.576 46.3035C12.4896 46.2937 12.411 46.2799 12.3384 46.2603V42.6262C12.411 42.6086 12.4896 42.5949 12.576 42.5831C12.6624 42.5733 12.7508 42.5635 12.8392 42.5576C12.9276 42.5498 13.0159 42.5439 13.1024 42.5399C13.1888 42.538 13.2693 42.536 13.3459 42.536C13.5619 42.536 13.7642 42.5517 13.9547 42.5831C14.1433 42.6164 14.3082 42.6713 14.4477 42.7498C14.5871 42.8263 14.6951 42.9283 14.7757 43.0538C14.8542 43.1813 14.8935 43.3362 14.8935 43.5186C14.8935 43.7245 14.8444 43.8932 14.7482 44.0246C14.65 44.156 14.5203 44.254 14.3573 44.3187C14.5773 44.3854 14.7541 44.4874 14.8837 44.6286C15.0133 44.7679 15.0781 44.9659 15.0781 45.2229C15.0781 45.5974 14.9406 45.8798 14.6637 46.0681C14.3868 46.2584 13.9508 46.3525 13.3498 46.3525V46.3525ZM12.8588 44.5737V45.8936C12.8981 45.8975 12.9452 45.8995 12.9983 45.9034C13.0454 45.9073 13.1004 45.9112 13.1632 45.9132C13.2281 45.9132 13.3007 45.9152 13.3832 45.9152C13.5384 45.9152 13.6857 45.9053 13.8251 45.8857C13.9645 45.8661 14.0863 45.8308 14.1904 45.7798C14.2945 45.7288 14.3789 45.6582 14.4418 45.568C14.5046 45.4778 14.5361 45.366 14.5361 45.2287C14.5361 45.1052 14.5125 45.0012 14.4654 44.9169C14.4202 44.8326 14.3514 44.7639 14.2631 44.7149C14.1747 44.6639 14.0686 44.6286 13.9469 44.607C13.8231 44.5855 13.6857 44.5737 13.5344 44.5737H12.8588ZM12.8588 44.152H13.4107C13.5403 44.152 13.6621 44.1422 13.778 44.1246C13.8938 44.1069 13.994 44.0736 14.0785 44.0285C14.1649 43.9814 14.2316 43.9187 14.2788 43.8441C14.3279 43.7677 14.3534 43.6735 14.3534 43.5578C14.3534 43.4499 14.3279 43.3578 14.2768 43.2832C14.2257 43.2107 14.157 43.1499 14.0686 43.1048C13.9803 43.0616 13.8762 43.0283 13.7564 43.0047C13.6385 42.9851 13.5109 42.9734 13.3773 42.9734C13.2438 42.9734 13.1397 42.9753 13.0631 42.9793C12.9885 42.9832 12.9197 42.9871 12.8588 42.9949V44.152V44.152ZM17.1246 43.4499C17.1678 43.4499 17.2188 43.4519 17.2738 43.4578C17.3308 43.4617 17.3858 43.4696 17.4388 43.4794C17.4938 43.4872 17.5429 43.497 17.5881 43.5068C17.6332 43.5147 17.6666 43.5225 17.6882 43.5303L17.6018 43.9677C17.5625 43.954 17.4957 43.9363 17.4034 43.9167C17.3111 43.8971 17.1933 43.8873 17.0499 43.8873C16.9557 43.8873 16.8614 43.8971 16.771 43.9167C16.6787 43.9363 16.6179 43.95 16.5884 43.9579V46.3211H16.0856V43.6284C16.2035 43.5833 16.3527 43.5441 16.5295 43.5068C16.7062 43.4676 16.9046 43.4499 17.1246 43.4499V43.4499ZM19.4263 45.9583C19.5461 45.9583 19.6502 45.9544 19.7425 45.9505C19.8348 45.9446 19.9114 45.9348 19.9723 45.921V45.0816C19.937 45.064 19.878 45.0483 19.7975 45.0365C19.715 45.0228 19.6168 45.0169 19.501 45.0169C19.4263 45.0169 19.3458 45.0228 19.2614 45.0326C19.1769 45.0444 19.0983 45.066 19.0276 45.1013C18.9569 45.1346 18.9 45.1817 18.8528 45.2425C18.8057 45.3013 18.7821 45.3797 18.7821 45.4758C18.7821 45.6563 18.8391 45.7818 18.955 45.8524C19.0708 45.923 19.228 45.9583 19.4263 45.9583ZM19.3831 43.4382C19.5854 43.4382 19.7563 43.4637 19.8937 43.5166C20.0332 43.5696 20.1451 43.6421 20.2296 43.7382C20.316 43.8343 20.3749 43.9481 20.4122 44.0795C20.4476 44.2109 20.4653 44.356 20.4653 44.5149V46.2721C20.4221 46.2799 20.3612 46.2897 20.2846 46.3015C20.206 46.3133 20.1196 46.325 20.0214 46.3368C19.9252 46.3466 19.8191 46.3584 19.7052 46.3662C19.5913 46.376 19.4794 46.38 19.3674 46.38C19.2083 46.38 19.061 46.3643 18.9275 46.3309C18.7939 46.2995 18.6781 46.2466 18.5818 46.1779C18.4836 46.1073 18.409 46.0132 18.354 45.8995C18.299 45.7838 18.2735 45.6445 18.2735 45.4817C18.2735 45.3268 18.3049 45.1934 18.3677 45.0816C18.4306 44.9699 18.517 44.8796 18.625 44.811C18.733 44.7443 18.8587 44.6933 19.0041 44.66C19.1474 44.6286 19.3006 44.611 19.4597 44.611C19.5088 44.611 19.5618 44.6149 19.6149 44.6188C19.6699 44.6247 19.7209 44.6325 19.77 44.6423C19.8191 44.6502 19.8604 44.658 19.8977 44.6659C19.933 44.6737 19.9586 44.6776 19.9723 44.6816V44.5423C19.9723 44.458 19.9645 44.3756 19.9468 44.2952C19.9271 44.2148 19.8957 44.1422 19.8486 44.0795C19.8014 44.0167 19.7366 43.9657 19.6561 43.9285C19.5756 43.8892 19.4695 43.8716 19.3399 43.8716C19.173 43.8716 19.0276 43.8834 18.9039 43.9069C18.7782 43.9285 18.6859 43.954 18.625 43.9795L18.5661 43.5617C18.6309 43.5343 18.7389 43.5068 18.8902 43.4794C19.0414 43.4519 19.2064 43.4382 19.3831 43.4382V43.4382ZM21.5965 43.5892C21.7124 43.5617 21.8656 43.5303 22.058 43.497C22.2485 43.4656 22.4685 43.4499 22.7179 43.4499C22.9418 43.4499 23.1284 43.4813 23.2757 43.5441C23.425 43.6068 23.5428 43.6951 23.6312 43.8088C23.7196 43.9226 23.7804 44.0579 23.8177 44.2168C23.8531 44.3756 23.8708 44.5502 23.8708 44.7424V46.3211H23.368V44.8502C23.368 44.6757 23.3562 44.5286 23.3327 44.407C23.3091 44.2834 23.2698 44.1854 23.2168 44.1089C23.1618 44.0324 23.0891 43.9775 23.0007 43.9442C22.9104 43.9089 22.7985 43.8932 22.6649 43.8932C22.6099 43.8932 22.5549 43.8951 22.496 43.8971C22.439 43.901 22.3841 43.9069 22.331 43.9108C22.278 43.9167 22.2309 43.9226 22.1896 43.9304C22.1484 43.9383 22.1189 43.9422 22.1012 43.9461V46.3211H21.5965V43.5892V43.5892ZM26.8226 44.103C26.7617 44.054 26.6734 44.005 26.5575 43.9579C26.4416 43.9108 26.3159 43.8873 26.1784 43.8873C26.0331 43.8873 25.9094 43.9128 25.8072 43.9657C25.7051 44.0187 25.6207 44.0893 25.5559 44.1815C25.491 44.2736 25.4439 44.3835 25.4145 44.509C25.385 44.6345 25.3712 44.7698 25.3712 44.9149C25.3712 45.2425 25.4518 45.4955 25.6148 45.6739C25.7778 45.8524 25.9938 45.9426 26.2649 45.9426C26.4023 45.9426 26.5162 45.9348 26.6085 45.923C26.7009 45.9112 26.7716 45.8975 26.8226 45.8818V44.103V44.103ZM26.8226 42.2105L27.3254 42.1242V46.2387C27.2115 46.2721 27.0622 46.3035 26.8815 46.3368C26.7009 46.3682 26.4946 46.3858 26.259 46.3858C26.0429 46.3858 25.8485 46.3505 25.6757 46.2819C25.5009 46.2133 25.3536 46.1172 25.2298 45.9897C25.1081 45.8642 25.0138 45.7112 24.947 45.5288C24.8803 45.3464 24.8469 45.1424 24.8469 44.9149C24.8469 44.6973 24.8744 44.4992 24.9294 44.3187C24.9863 44.1403 25.0688 43.9853 25.1768 43.8539C25.2848 43.7245 25.4164 43.6245 25.5755 43.5519C25.7307 43.4794 25.9113 43.4441 26.1136 43.4441C26.2747 43.4441 26.42 43.4656 26.5437 43.5088C26.6675 43.5519 26.7617 43.5931 26.8226 43.6323V42.2105ZM28.9948 46.3211H28.49V43.5088H28.9948V46.3211ZM28.7394 43.0008C28.6491 43.0008 28.5725 42.9714 28.5097 42.9106C28.4468 42.8518 28.4154 42.7714 28.4154 42.6713C28.4154 42.5694 28.4468 42.489 28.5097 42.4301C28.5725 42.3713 28.6491 42.3399 28.7394 42.3399C28.8298 42.3399 28.9064 42.3713 28.9692 42.4301C29.0321 42.489 29.0635 42.5694 29.0635 42.6713C29.0635 42.7714 29.0321 42.8518 28.9692 42.9106C28.9064 42.9714 28.8298 43.0008 28.7394 43.0008ZM30.1574 43.5892C30.2733 43.5617 30.4265 43.5303 30.619 43.497C30.8095 43.4656 31.0294 43.4499 31.2789 43.4499C31.5027 43.4499 31.6893 43.4813 31.8366 43.5441C31.9839 43.6068 32.1037 43.6951 32.1921 43.8088C32.2805 43.9226 32.3414 44.0579 32.3787 44.2168C32.414 44.3756 32.4317 44.5502 32.4317 44.7424V46.3211H31.9289V44.8502C31.9289 44.6757 31.9171 44.5286 31.8936 44.407C31.87 44.2834 31.8307 44.1854 31.7777 44.1089C31.7227 44.0324 31.65 43.9775 31.5597 43.9442C31.4694 43.9089 31.3574 43.8932 31.2239 43.8932C31.1708 43.8932 31.1139 43.8951 31.0569 43.8971C31 43.901 30.943 43.9069 30.8919 43.9108C30.8389 43.9167 30.7918 43.9226 30.7505 43.9304C30.7093 43.9383 30.6798 43.9422 30.6622 43.9461V46.3211H30.1574V43.5892V43.5892ZM35.3285 46.0387C35.2853 46.0681 35.2009 46.1054 35.0772 46.1505C34.9534 46.1956 34.8081 46.2172 34.6412 46.2172C34.4723 46.2172 34.3112 46.1897 34.1619 46.1368C34.0127 46.0818 33.8811 45.9995 33.7692 45.8857C33.6572 45.772 33.5688 45.6308 33.504 45.4602C33.4392 45.2915 33.4058 45.0895 33.4058 44.8541C33.4058 44.6502 33.4372 44.4619 33.4981 44.2893C33.561 44.1187 33.6494 43.9716 33.7672 43.8461C33.885 43.7225 34.0284 43.6245 34.1973 43.5539C34.3662 43.4833 34.5587 43.4499 34.7708 43.4499C35.0065 43.4499 35.2107 43.4656 35.3855 43.5009C35.5603 43.5343 35.7076 43.5656 35.8274 43.5951V46.1034C35.8274 46.5368 35.7154 46.8506 35.4916 47.0448C35.2677 47.239 34.9279 47.337 34.4742 47.337C34.2975 47.337 34.1286 47.3233 33.9734 47.2939C33.8163 47.2644 33.6788 47.2311 33.5629 47.1899L33.6552 46.7526C33.7574 46.7918 33.8811 46.8271 34.0264 46.8585C34.1737 46.8899 34.325 46.9036 34.484 46.9036C34.7845 46.9036 34.9986 46.8448 35.1321 46.7251C35.2637 46.6074 35.3285 46.4172 35.3285 46.1583V46.0387V46.0387ZM35.3246 43.952C35.2736 43.9383 35.2048 43.9245 35.1204 43.9108C35.0359 43.8991 34.92 43.8932 34.7767 43.8932C34.5056 43.8932 34.2975 43.9814 34.1521 44.1579C34.0048 44.3344 33.9322 44.5678 33.9322 44.86C33.9322 45.0228 33.9518 45.1621 33.995 45.2758C34.0363 45.3915 34.0912 45.4876 34.1619 45.5641C34.2327 45.6386 34.3132 45.6955 34.4055 45.7308C34.4978 45.7681 34.5921 45.7857 34.6903 45.7857C34.8238 45.7857 34.9456 45.7661 35.0575 45.7288C35.1695 45.6896 35.2578 45.6465 35.3246 45.5955V43.952ZM38.3275 42.0869H38.7989V47.3213H38.3275V42.0869ZM43.0175 45.8014C42.9821 45.7151 42.933 45.6053 42.8741 45.4719C42.8152 45.3386 42.7504 45.1934 42.6816 45.0385C42.6129 44.8836 42.5402 44.7247 42.4636 44.56C42.3851 44.3972 42.3124 44.2403 42.2437 44.0952C42.1749 43.95 42.1101 43.8186 42.0512 43.7029C41.9923 43.5872 41.9432 43.499 41.9078 43.4382C41.8685 43.8637 41.8352 44.3246 41.8096 44.8188C41.7841 45.315 41.7625 45.8151 41.7448 46.3211H41.2303C41.246 45.9956 41.2617 45.668 41.2794 45.3386C41.297 45.0091 41.3186 44.6855 41.3422 44.3658C41.3658 44.0461 41.3913 43.7363 41.4168 43.4323C41.4443 43.1303 41.4738 42.8439 41.5072 42.5733H41.9667C42.0649 42.7321 42.169 42.9185 42.281 43.1361C42.3929 43.3519 42.5049 43.5774 42.6168 43.8147C42.7288 44.0501 42.8368 44.2854 42.9428 44.5227C43.0469 44.758 43.1432 44.9738 43.2296 45.1679C43.316 44.9738 43.4103 44.758 43.5163 44.5227C43.6204 44.2854 43.7284 44.0501 43.8404 43.8147C43.9523 43.5774 44.0643 43.3519 44.1762 43.1361C44.2881 42.9185 44.3922 42.7321 44.4904 42.5733H44.95C45.0737 43.7814 45.166 45.0307 45.2269 46.3211H44.7124C44.6947 45.8151 44.6731 45.315 44.6476 44.8188C44.622 44.3246 44.5906 43.8637 44.5494 43.4382C44.514 43.499 44.4669 43.5872 44.406 43.7029C44.3471 43.8186 44.2823 43.95 44.2135 44.0952C44.1467 44.2403 44.0721 44.3972 43.9955 44.56C43.917 44.7247 43.8443 44.8836 43.7756 45.0385C43.7068 45.1934 43.644 45.3386 43.5831 45.4719C43.5242 45.6053 43.477 45.7151 43.4397 45.8014H43.0175V45.8014ZM46.1578 44.9208C46.1578 44.6718 46.1952 44.4541 46.2659 44.2678C46.3385 44.0834 46.4348 43.9285 46.5526 43.8069C46.6724 43.6833 46.8099 43.5911 46.965 43.5303C47.1202 43.4696 47.2793 43.4382 47.4423 43.4382C47.8213 43.4382 48.112 43.5558 48.3143 43.7931C48.5146 44.0285 48.6167 44.3874 48.6167 44.8718C48.6167 44.8934 48.6167 44.9208 48.6167 44.9542C48.6167 44.9895 48.6148 45.0208 48.6108 45.0503H46.6842C46.7058 45.3425 46.7902 45.5641 46.9375 45.7151C47.0868 45.8661 47.3166 45.9426 47.6308 45.9426C47.8076 45.9426 47.9568 45.9269 48.0786 45.8955C48.1984 45.8661 48.2907 45.8347 48.3516 45.8073L48.4223 46.2289C48.3594 46.2603 48.2534 46.2956 48.1002 46.3309C47.947 46.3662 47.7722 46.3858 47.5778 46.3858C47.3323 46.3858 47.1202 46.3486 46.9415 46.274C46.7627 46.1995 46.6154 46.0995 46.4996 45.9681C46.3837 45.8387 46.2973 45.6857 46.2423 45.5072C46.1853 45.3288 46.1578 45.1326 46.1578 44.9208ZM48.0923 44.6443C48.0943 44.4168 48.0374 44.2305 47.9215 44.0854C47.8036 43.9383 47.6426 43.8657 47.4364 43.8657C47.3205 43.8657 47.2184 43.8873 47.13 43.9324C47.0416 43.9775 46.967 44.0363 46.9061 44.1089C46.8433 44.1815 46.7961 44.2638 46.7627 44.358C46.7274 44.4521 46.7058 44.5462 46.694 44.6443H48.0923V44.6443ZM51.4586 44.103C51.3977 44.054 51.3093 44.005 51.1934 43.9579C51.0795 43.9108 50.9519 43.8873 50.8144 43.8873C50.671 43.8873 50.5473 43.9128 50.4432 43.9657C50.3411 44.0187 50.2566 44.0893 50.1918 44.1815C50.127 44.2736 50.0799 44.3835 50.0524 44.509C50.0229 44.6345 50.0092 44.7698 50.0092 44.9149C50.0092 45.2425 50.0897 45.4955 50.2527 45.6739C50.4138 45.8524 50.6318 45.9426 50.9008 45.9426C51.0383 45.9426 51.1542 45.9348 51.2465 45.923C51.3368 45.9112 51.4095 45.8975 51.4586 45.8818V44.103V44.103ZM51.4586 42.2105L51.9633 42.1242V46.2387C51.8474 46.2721 51.7002 46.3035 51.5195 46.3368C51.3388 46.3682 51.1306 46.3858 50.8969 46.3858C50.6789 46.3858 50.4845 46.3505 50.3116 46.2819C50.1388 46.2133 49.9895 46.1172 49.8678 45.9897C49.744 45.8642 49.6498 45.7112 49.583 45.5288C49.5162 45.3464 49.4828 45.1424 49.4828 44.9149C49.4828 44.6973 49.5103 44.4992 49.5673 44.3187C49.6223 44.1403 49.7048 43.9853 49.8128 43.8539C49.9208 43.7245 50.0543 43.6245 50.2115 43.5519C50.3686 43.4794 50.5473 43.4441 50.7496 43.4441C50.9126 43.4441 51.056 43.4656 51.1797 43.5088C51.3054 43.5519 51.3977 43.5931 51.4586 43.6323V42.2105V42.2105ZM53.6307 46.3211H53.1279V43.5088H53.6307V46.3211ZM53.3754 43.0008C53.2851 43.0008 53.2085 42.9714 53.1456 42.9106C53.0828 42.8518 53.0514 42.7714 53.0514 42.6713C53.0514 42.5694 53.0828 42.489 53.1456 42.4301C53.2085 42.3713 53.2851 42.3399 53.3754 42.3399C53.4658 42.3399 53.5423 42.3713 53.6072 42.4301C53.67 42.489 53.7014 42.5694 53.7014 42.6713C53.7014 42.7714 53.67 42.8518 53.6072 42.9106C53.5423 42.9714 53.4658 43.0008 53.3754 43.0008ZM55.7479 45.9583C55.8677 45.9583 55.9718 45.9544 56.0641 45.9505C56.1564 45.9446 56.233 45.9348 56.2939 45.921V45.0816C56.2585 45.064 56.1996 45.0483 56.1191 45.0365C56.0366 45.0228 55.9384 45.0169 55.8225 45.0169C55.7479 45.0169 55.6674 45.0228 55.5829 45.0326C55.4985 45.0444 55.4199 45.066 55.3492 45.1013C55.2785 45.1346 55.2215 45.1817 55.1744 45.2425C55.1273 45.3013 55.1037 45.3797 55.1037 45.4758C55.1037 45.6563 55.1607 45.7818 55.2765 45.8524C55.3924 45.923 55.5495 45.9583 55.7479 45.9583ZM55.7047 43.4382C55.907 43.4382 56.0778 43.4637 56.2153 43.5166C56.3547 43.5696 56.4667 43.6421 56.5511 43.7382C56.6376 43.8343 56.6965 43.9481 56.7338 44.0795C56.7691 44.2109 56.7868 44.356 56.7868 44.5149V46.2721C56.7436 46.2799 56.6827 46.2897 56.6061 46.3015C56.5276 46.3133 56.4412 46.325 56.343 46.3368C56.2467 46.3466 56.1407 46.3584 56.0268 46.3662C55.9129 46.376 55.8009 46.38 55.687 46.38C55.5299 46.38 55.3826 46.3643 55.249 46.3309C55.1155 46.2995 54.9996 46.2466 54.9034 46.1779C54.8052 46.1073 54.7286 46.0132 54.6756 45.8995C54.6206 45.7838 54.595 45.6445 54.595 45.4817C54.595 45.3268 54.6265 45.1934 54.6893 45.0816C54.7522 44.9699 54.8386 44.8796 54.9466 44.811C55.0546 44.7443 55.1803 44.6933 55.3256 44.66C55.469 44.6286 55.6202 44.611 55.7793 44.611C55.8304 44.611 55.8834 44.6149 55.9364 44.6188C55.9914 44.6247 56.0425 44.6325 56.0916 44.6423C56.1407 44.6502 56.1819 44.658 56.2192 44.6659C56.2546 44.6737 56.2801 44.6776 56.2939 44.6816V44.5423C56.2939 44.458 56.286 44.3756 56.2683 44.2952C56.2487 44.2148 56.2173 44.1422 56.1701 44.0795C56.123 44.0167 56.0582 43.9657 55.9777 43.9285C55.8971 43.8892 55.7911 43.8716 55.6615 43.8716C55.4945 43.8716 55.3492 43.8834 55.2255 43.9069C55.0998 43.9285 55.0075 43.954 54.9466 43.9795L54.8877 43.5617C54.9525 43.5343 55.0605 43.5068 55.2117 43.4794C55.3629 43.4519 55.5279 43.4382 55.7047 43.4382V43.4382ZM60.1982 42.536C60.7246 42.536 61.1311 42.636 61.4139 42.8361C61.6967 43.0361 61.8401 43.3342 61.8401 43.7304C61.8401 43.9461 61.8008 44.1305 61.7223 44.2854C61.6457 44.4384 61.5337 44.5619 61.3864 44.658C61.2411 44.7522 61.0624 44.8228 60.8542 44.8659C60.644 44.9091 60.4084 44.9306 60.1452 44.9306H59.7269V46.3211H59.2025V42.6262C59.3498 42.5909 59.5148 42.5674 59.6974 42.5537C59.8801 42.5419 60.047 42.536 60.1982 42.536V42.536ZM60.2414 42.9949C60.0175 42.9949 59.8467 43.0008 59.7269 43.0106V44.4815H60.1216C60.3023 44.4815 60.4653 44.4698 60.6107 44.4462C60.754 44.4227 60.8758 44.3835 60.976 44.3285C61.0742 44.2717 61.1507 44.1952 61.2057 44.0971C61.2588 44.001 61.2863 43.8755 61.2863 43.7245C61.2863 43.5813 61.2588 43.4617 61.2038 43.3676C61.1468 43.2734 61.0702 43.1989 60.976 43.144C60.8797 43.0871 60.7697 43.0499 60.6421 43.0283C60.5164 43.0047 60.3828 42.9949 60.2414 42.9949V42.9949ZM63.6037 46.3741C63.2934 46.3662 63.0735 46.2995 62.9438 46.174C62.8142 46.0485 62.7494 45.8524 62.7494 45.5857V42.2105L63.2522 42.1242V45.5033C63.2522 45.5876 63.26 45.6543 63.2738 45.7092C63.2875 45.7641 63.3111 45.8073 63.3445 45.8387C63.3759 45.872 63.4191 45.8955 63.4741 45.9132C63.5291 45.9289 63.5959 45.9426 63.6744 45.9524L63.6037 46.3741V46.3741ZM65.4891 45.9583C65.607 45.9583 65.713 45.9544 65.8053 45.9505C65.8976 45.9446 65.9742 45.9348 66.0351 45.921V45.0816C65.9998 45.064 65.9409 45.0483 65.8584 45.0365C65.7778 45.0228 65.6796 45.0169 65.5638 45.0169C65.4891 45.0169 65.4086 45.0228 65.3242 45.0326C65.2378 45.0444 65.1612 45.066 65.0905 45.1013C65.0198 45.1346 64.9608 45.1817 64.9137 45.2425C64.8666 45.3013 64.845 45.3797 64.845 45.4758C64.845 45.6563 64.9019 45.7818 65.0178 45.8524C65.1337 45.923 65.2908 45.9583 65.4891 45.9583ZM65.4459 43.4382C65.6482 43.4382 65.8171 43.4637 65.9566 43.5166C66.096 43.5696 66.2079 43.6421 66.2924 43.7382C66.3768 43.8343 66.4377 43.9481 66.4731 44.0795C66.5104 44.2109 66.5281 44.356 66.5281 44.5149V46.2721C66.4849 46.2799 66.424 46.2897 66.3474 46.3015C66.2688 46.3133 66.1824 46.325 66.0842 46.3368C65.986 46.3466 65.8819 46.3584 65.768 46.3662C65.6541 46.376 65.5402 46.38 65.4283 46.38C65.2692 46.38 65.1239 46.3643 64.9903 46.3309C64.8568 46.2995 64.7409 46.2466 64.6446 46.1779C64.5464 46.1073 64.4698 46.0132 64.4168 45.8995C64.3618 45.7838 64.3343 45.6445 64.3343 45.4817C64.3343 45.3268 64.3658 45.1934 64.4306 45.0816C64.4934 44.9699 64.5779 44.8796 64.6878 44.811C64.7959 44.7443 64.9216 44.6933 65.0669 44.66C65.2103 44.6286 65.3615 44.611 65.5206 44.611C65.5716 44.611 65.6247 44.6149 65.6777 44.6188C65.7327 44.6247 65.7837 44.6325 65.8328 44.6423C65.8819 44.6502 65.9232 44.658 65.9585 44.6659C65.9959 44.6737 66.0214 44.6776 66.0351 44.6816V44.5423C66.0351 44.458 66.0273 44.3756 66.0076 44.2952C65.99 44.2148 65.9585 44.1422 65.9114 44.0795C65.8643 44.0167 65.7994 43.9657 65.7189 43.9285C65.6364 43.8892 65.5324 43.8716 65.4027 43.8716C65.2358 43.8716 65.0905 43.8834 64.9648 43.9069C64.841 43.9285 64.7487 43.954 64.6878 43.9795L64.627 43.5617C64.6918 43.5343 64.7998 43.5068 64.953 43.4794C65.1042 43.4519 65.2692 43.4382 65.4459 43.4382V43.4382ZM67.6593 43.5892C67.7752 43.5617 67.9284 43.5303 68.1189 43.497C68.3114 43.4656 68.5313 43.4499 68.7808 43.4499C69.0046 43.4499 69.1892 43.4813 69.3385 43.5441C69.4858 43.6068 69.6037 43.6951 69.692 43.8088C69.7804 43.9226 69.8433 44.0579 69.8806 44.2168C69.9159 44.3756 69.9336 44.5502 69.9336 44.7424V46.3211H69.4308V44.8502C69.4308 44.6757 69.419 44.5286 69.3955 44.407C69.3719 44.2834 69.3326 44.1854 69.2776 44.1089C69.2246 44.0324 69.1519 43.9775 69.0616 43.9442C68.9713 43.9089 68.8593 43.8932 68.7258 43.8932C68.6727 43.8932 68.6158 43.8951 68.5588 43.8971C68.4999 43.901 68.4449 43.9069 68.3938 43.9108C68.3408 43.9167 68.2937 43.9226 68.2524 43.9304C68.2112 43.9383 68.1817 43.9422 68.1641 43.9461V46.3211H67.6593V43.5892V43.5892ZM71.0648 43.5892C71.1807 43.5617 71.3339 43.5303 71.5264 43.497C71.7169 43.4656 71.9368 43.4499 72.1863 43.4499C72.4101 43.4499 72.5967 43.4813 72.744 43.5441C72.8913 43.6068 73.0111 43.6951 73.0995 43.8088C73.1879 43.9226 73.2488 44.0579 73.2861 44.2168C73.3214 44.3756 73.3391 44.5502 73.3391 44.7424V46.3211H72.8363V44.8502C72.8363 44.6757 72.8245 44.5286 72.801 44.407C72.7774 44.2834 72.7381 44.1854 72.6851 44.1089C72.6301 44.0324 72.5574 43.9775 72.4671 43.9442C72.3768 43.9089 72.2648 43.8932 72.1313 43.8932C72.0782 43.8932 72.0213 43.8951 71.9643 43.8971C71.9074 43.901 71.8524 43.9069 71.7994 43.9108C71.7463 43.9167 71.6992 43.9226 71.658 43.9304C71.6167 43.9383 71.5873 43.9422 71.5696 43.9461V46.3211H71.0648V43.5892ZM74.9751 46.3211H74.4723V43.5088H74.9751V46.3211ZM74.7198 43.0008C74.6294 43.0008 74.5528 42.9714 74.49 42.9106C74.4271 42.8518 74.3957 42.7714 74.3957 42.6713C74.3957 42.5694 74.4271 42.489 74.49 42.4301C74.5528 42.3713 74.6294 42.3399 74.7198 42.3399C74.8101 42.3399 74.8867 42.3713 74.9515 42.4301C75.0144 42.489 75.0458 42.5694 75.0458 42.6713C75.0458 42.7714 75.0144 42.8518 74.9515 42.9106C74.8867 42.9714 74.8101 43.0008 74.7198 43.0008ZM76.1397 43.5892C76.2536 43.5617 76.4088 43.5303 76.5993 43.497C76.7898 43.4656 77.0098 43.4499 77.2592 43.4499C77.4831 43.4499 77.6697 43.4813 77.817 43.5441C77.9662 43.6068 78.0841 43.6951 78.1724 43.8088C78.2608 43.9226 78.3236 44.0579 78.359 44.2168C78.3943 44.3756 78.414 44.5502 78.414 44.7424V46.3211H77.9093V44.8502C77.9093 44.6757 77.8975 44.5286 77.8739 44.407C77.8503 44.2834 77.813 44.1854 77.758 44.1089C77.703 44.0324 77.6323 43.9775 77.542 43.9442C77.4516 43.9089 77.3397 43.8932 77.2061 43.8932C77.1512 43.8932 77.0962 43.8951 77.0373 43.8971C76.9803 43.901 76.9253 43.9069 76.8723 43.9108C76.8212 43.9167 76.7741 43.9226 76.7309 43.9304C76.6896 43.9383 76.6602 43.9422 76.6425 43.9461V46.3211H76.1397V43.5892V43.5892ZM81.3108 46.0387C81.2676 46.0681 81.1832 46.1054 81.0575 46.1505C80.9338 46.1956 80.7884 46.2172 80.6215 46.2172C80.4526 46.2172 80.2935 46.1897 80.1423 46.1368C79.993 46.0818 79.8634 45.9995 79.7515 45.8857C79.6375 45.772 79.5511 45.6308 79.4844 45.4602C79.4195 45.2915 79.3881 45.0895 79.3881 44.8541C79.3881 44.6502 79.4176 44.4619 79.4804 44.2893C79.5413 44.1187 79.6297 43.9716 79.7475 43.8461C79.8654 43.7225 80.0087 43.6245 80.1776 43.5539C80.3485 43.4833 80.539 43.4499 80.7531 43.4499C80.9868 43.4499 81.191 43.4656 81.3678 43.5009C81.5426 43.5343 81.6899 43.5656 81.8077 43.5951V46.1034C81.8077 46.5368 81.6958 46.8506 81.4719 47.0448C81.248 47.239 80.9102 47.337 80.4546 47.337C80.2778 47.337 80.1109 47.3233 79.9537 47.2939C79.7966 47.2644 79.6611 47.2311 79.5452 47.1899L79.6375 46.7526C79.7377 46.7918 79.8614 46.8271 80.0087 46.8585C80.1541 46.8899 80.3073 46.9036 80.4644 46.9036C80.7649 46.9036 80.9809 46.8448 81.1125 46.7251C81.2441 46.6074 81.3108 46.4172 81.3108 46.1583V46.0387ZM81.3049 43.952C81.2539 43.9383 81.1871 43.9245 81.1007 43.9108C81.0162 43.8991 80.9023 43.8932 80.757 43.8932C80.4879 43.8932 80.2778 43.9814 80.1325 44.1579C79.9852 44.3344 79.9125 44.5678 79.9125 44.86C79.9125 45.0228 79.9341 45.1621 79.9753 45.2758C80.0166 45.3915 80.0735 45.4876 80.1423 45.5641C80.213 45.6386 80.2955 45.6955 80.3878 45.7308C80.4781 45.7681 80.5744 45.7857 80.6706 45.7857C80.8041 45.7857 80.9279 45.7661 81.0398 45.7288C81.1518 45.6896 81.2401 45.6465 81.3049 45.5955V43.952ZM84.3098 42.0869H84.7812V47.3213H84.3098V42.0869ZM87.3147 46.3211V42.5733H89.5791V43.0224H87.8391V44.152H89.3827V44.5953H87.8391V46.3211H87.3147V46.3211ZM90.9912 46.3211H90.4884V43.5088H90.9912V46.3211ZM90.7359 43.0008C90.6475 43.0008 90.569 42.9714 90.5061 42.9106C90.4433 42.8518 90.4119 42.7714 90.4119 42.6713C90.4119 42.5694 90.4433 42.489 90.5061 42.4301C90.569 42.3713 90.6475 42.3399 90.7359 42.3399C90.8262 42.3399 90.9028 42.3713 90.9676 42.4301C91.0305 42.489 91.0619 42.5694 91.0619 42.6713C91.0619 42.7714 91.0305 42.8518 90.9676 42.9106C90.9028 42.9714 90.8262 43.0008 90.7359 43.0008ZM93.0004 46.3741C92.6901 46.3662 92.4701 46.2995 92.3405 46.174C92.2089 46.0485 92.1441 45.8524 92.1441 45.5857V42.2105L92.6488 42.1242V45.5033C92.6488 45.5876 92.6547 45.6543 92.6704 45.7092C92.6842 45.7641 92.7077 45.8073 92.7411 45.8387C92.7725 45.872 92.8157 45.8955 92.8707 45.9132C92.9238 45.9289 92.9905 45.9426 93.0711 45.9524L93.0004 46.3741V46.3741ZM93.9313 43.5892C94.0472 43.5617 94.1984 43.5303 94.3889 43.497C94.5774 43.4656 94.7974 43.4499 95.0468 43.4499C95.2275 43.4499 95.3787 43.4735 95.5024 43.5225C95.6242 43.5715 95.7263 43.6421 95.8108 43.7363C95.8363 43.7167 95.8756 43.6931 95.9286 43.6598C95.9836 43.6284 96.0504 43.5951 96.129 43.5656C96.2095 43.5343 96.2978 43.5068 96.3941 43.4833C96.4923 43.4617 96.5964 43.4499 96.7083 43.4499C96.9263 43.4499 97.1031 43.4813 97.2406 43.5441C97.3761 43.6068 97.4841 43.6951 97.5626 43.8108C97.6392 43.9265 97.6923 44.0638 97.7198 44.2226C97.7453 44.3815 97.759 44.5541 97.759 44.7424V46.3211H97.2563V44.8502C97.2563 44.6835 97.2484 44.5423 97.2307 44.4227C97.215 44.3031 97.1856 44.205 97.1404 44.1246C97.0952 44.0461 97.0324 43.9873 96.9558 43.95C96.8772 43.9108 96.7771 43.8932 96.6553 43.8932C96.4844 43.8932 96.345 43.9147 96.235 43.9598C96.125 44.005 96.0504 44.0461 96.0111 44.0814C96.0386 44.1756 96.0602 44.2776 96.0759 44.3893C96.0897 44.5011 96.0975 44.6188 96.0975 44.7424V46.3211H95.5928V44.8502C95.5928 44.6835 95.5849 44.5423 95.5673 44.4227C95.5476 44.3031 95.5162 44.205 95.471 44.1246C95.4258 44.0461 95.365 43.9873 95.2884 43.95C95.2098 43.9108 95.1116 43.8932 94.9918 43.8932C94.9427 43.8932 94.8877 43.8951 94.8308 43.8971C94.7719 43.901 94.7169 43.9069 94.6658 43.9108C94.6128 43.9167 94.5656 43.9226 94.5205 43.9304C94.4773 43.9383 94.4498 43.9422 94.4341 43.9461V46.3211H93.9313V43.5892V43.5892Z" fill="#CC233A"/>
<path d="M99.5461 45.9576C99.7523 45.9576 99.9036 45.9302 100.004 45.8772C100.104 45.8223 100.153 45.736 100.153 45.6164C100.153 45.4948 100.104 45.3967 100.006 45.3242C99.9094 45.2536 99.7484 45.1712 99.5245 45.081C99.4165 45.0378 99.3124 44.9947 99.2122 44.9496C99.114 44.9045 99.0276 44.8515 98.9569 44.7888C98.8842 44.728 98.8253 44.6534 98.7821 44.5671C98.7389 44.4808 98.7173 44.3749 98.7173 44.2494C98.7173 44.0004 98.8096 43.8023 98.9942 43.6572C99.1769 43.5101 99.4283 43.4375 99.7464 43.4375C99.827 43.4375 99.9055 43.4414 99.9841 43.4512C100.065 43.461 100.137 43.4708 100.206 43.4826C100.275 43.4963 100.336 43.5101 100.389 43.5238C100.44 43.5395 100.481 43.5512 100.51 43.5611L100.418 43.9945C100.363 43.9651 100.279 43.9356 100.163 43.9062C100.047 43.8748 99.9094 43.8592 99.7464 43.8592C99.605 43.8592 99.4832 43.8866 99.3792 43.9435C99.2731 43.9984 99.222 44.0867 99.222 44.2063C99.222 44.2671 99.2338 44.32 99.2554 44.3671C99.279 44.4142 99.3163 44.4573 99.3654 44.4946C99.4145 44.5318 99.4734 44.5671 99.5461 44.6005C99.6188 44.6319 99.7052 44.6672 99.8053 44.7025C99.9389 44.7535 100.059 44.8025 100.163 44.8515C100.269 44.9005 100.357 44.9574 100.432 45.0221C100.507 45.0869 100.561 45.1653 100.603 45.2575C100.642 45.3497 100.662 45.4614 100.662 45.5948C100.662 45.8537 100.565 46.0518 100.373 46.1851C100.179 46.3185 99.9035 46.3852 99.5461 46.3852C99.2967 46.3852 99.1022 46.3636 98.9608 46.3224C98.8214 46.2812 98.7251 46.2498 98.6741 46.2283L98.7664 45.7948C98.8233 45.8164 98.9156 45.8498 99.0433 45.8929C99.169 45.9361 99.3359 45.9576 99.5461 45.9576V45.9576Z" fill="#CC233A"/>
</svg>
