<svg width="120" height="120" viewBox="0 0 120 120" fill="none" xmlns="http://www.w3.org/2000/svg">
<path fill-rule="evenodd" clip-rule="evenodd" d="M51.293 79.4298L76.8867 60.8087C77.0076 60.7232 77.1063 60.61 77.1743 60.4784C77.2424 60.3469 77.278 60.201 77.278 60.0529C77.278 59.9048 77.2424 59.7589 77.1743 59.6273C77.1063 59.4958 77.0076 59.3825 76.8867 59.297L51.293 40.6876C51.1529 40.5859 50.9873 40.525 50.8147 40.5116C50.6421 40.4982 50.4692 40.5329 50.3151 40.6117C50.1609 40.6906 50.0317 40.8106 49.9416 40.9585C49.8515 41.1063 49.8041 41.2762 49.8047 41.4494V78.6681C49.805 78.8409 49.8529 79.0103 49.9431 79.1576C50.0334 79.3049 50.1625 79.4245 50.3163 79.5032C50.4701 79.582 50.6427 79.6168 50.815 79.6038C50.9873 79.5909 51.1527 79.5307 51.293 79.4298Z" fill="white"/>
<path opacity="0.3" d="M60 7.5C31.0078 7.5 7.5 31.0078 7.5 60C7.5 88.9922 31.0078 112.5 60 112.5C88.9922 112.5 112.5 88.9922 112.5 60C112.5 31.0078 88.9922 7.5 60 7.5ZM76.8867 60.8086L51.293 79.4297C51.1527 79.5305 50.9873 79.5907 50.815 79.6037C50.6427 79.6166 50.4701 79.5818 50.3163 79.5031C50.1625 79.4244 50.0334 79.3048 49.9431 79.1574C49.8529 79.0101 49.805 78.8407 49.8047 78.668V41.4492C49.8041 41.2761 49.8515 41.1062 49.9416 40.9583C50.0317 40.8105 50.1609 40.6905 50.3151 40.6116C50.4692 40.5327 50.6421 40.4981 50.8147 40.5115C50.9873 40.5249 51.1529 40.5858 51.293 40.6875L76.8867 59.2969C77.0076 59.3824 77.1063 59.4957 77.1743 59.6272C77.2424 59.7587 77.2779 59.9046 77.2779 60.0527C77.2779 60.2008 77.2424 60.3468 77.1743 60.4783C77.1063 60.6098 77.0076 60.7231 76.8867 60.8086V60.8086Z" fill="#111111"/>
</svg>
